<svg width="144" height="163" viewBox="0 0 144 163" fill="none" xmlns="http://www.w3.org/2000/svg">
<path d="M2.97883 28.3575C15.7081 27.1255 51.9823 23.1915 57.9356 41.8188C60.4127 49.5696 59.4276 61.6116 54.2918 68.4028C43.2627 82.9866 16.2523 74.7093 31.9193 56.3432C40.7057 46.0431 57.709 47.932 69.731 49.4355C87.4522 51.6518 98.4649 62.3152 109.142 75.6287C114.565 82.39 132.486 119.239 129.887 118.706" stroke="#1C1C1C" stroke-width="5" stroke-linecap="round"/>
<path d="M138.254 131.387C135.6 130.745 115.438 125.178 117.81 126.179C120.914 127.491 124.251 128.522 127.172 130.211C130.629 132.209 134.534 133.304 137.745 135.668C140.562 137.743 139.995 119.338 139.16 116.221" stroke="#1C1C1C" stroke-width="5" stroke-linecap="round"/>
</svg>
