<svg width="1003" height="438" viewBox="0 0 1003 438" fill="none" xmlns="http://www.w3.org/2000/svg">
<path d="M35.1844 393.074C35.1132 392.145 34.9369 390.975 34.6555 389.564C34.3741 388.154 33.9946 386.297 33.5171 383.995C33.1021 381.673 32.53 378.821 31.8011 375.438C31.1345 372.037 30.3492 367.891 29.4452 362.998C28.5412 358.106 27.4596 352.383 26.2003 345.831C24.985 339.197 23.6523 331.478 22.2022 322.674C22.08 322.031 22.2501 321.573 22.7126 321.301C23.2376 321.01 23.7186 320.799 24.1556 320.67C24.8423 320.467 25.478 320.551 26.0628 320.921C26.6475 321.291 27.1883 321.742 27.6851 322.274C28.2444 322.788 28.7816 323.341 29.2969 323.936C29.8122 324.53 30.3218 324.991 30.8256 325.317C31.8746 326.568 32.9883 328.038 34.1666 329.726C35.4073 331.396 36.7162 333.181 38.0932 335.082C39.4702 336.983 40.8565 338.916 42.252 340.879C43.629 342.78 44.9968 344.65 46.3553 346.488C47.6954 348.265 48.9361 349.934 50.0775 351.498C51.2628 352.98 52.3026 354.2 53.1969 355.158C53.8651 354.892 54.7589 354.356 55.8783 353.55C56.9792 352.681 58.1829 351.816 59.4895 350.954C60.7962 350.093 62.0993 349.334 63.3989 348.678C64.6985 348.022 65.8535 347.68 66.8638 347.653C67.8556 347.563 68.6057 347.918 69.1139 348.718C69.6846 349.5 69.8724 350.938 69.6772 353.033C69.2402 353.162 68.8159 353.22 68.4044 353.206C67.9744 353.129 67.5537 353.084 67.1422 353.07C66.7122 352.993 66.2602 352.957 65.7863 352.962C65.3563 352.885 64.8916 352.921 64.3921 353.068C64.08 353.161 63.4174 353.56 62.4045 354.267C61.4355 354.894 60.3913 355.61 59.272 356.416C58.1342 357.16 57.1617 357.889 56.3545 358.603C55.5288 359.255 55.1437 359.674 55.1991 359.861L69.1672 383.328L67.785 387.607C66.1882 386.11 64.6735 384.318 63.2411 382.229C61.8527 380.06 60.5047 377.913 59.1971 375.788C57.8711 373.6 56.5692 371.609 55.2916 369.814C54.0579 367.939 52.7385 366.462 51.3333 365.384C50.207 366.396 48.8032 367.388 47.1219 368.361C45.4407 369.333 43.8589 370.412 42.3764 371.598C40.8754 372.72 39.6668 374.028 38.7506 375.521C37.8784 376.934 37.5944 378.613 37.8987 380.56C37.9954 381.346 38.166 382.382 38.4105 383.667C38.7174 384.934 38.9746 386.148 39.1821 387.309C39.4011 388.738 39.6605 390.189 39.9604 391.662L35.1844 393.074ZM29.6387 334.732L29.9223 336.379C30.1738 337.459 30.4495 338.735 30.7493 340.208C31.0307 341.618 31.2994 343.1 31.5553 344.654C31.8551 346.127 32.1216 347.372 32.3546 348.389C33.0766 351.978 33.7581 355.544 34.3992 359.089C35.0842 362.552 35.953 366.063 37.0056 369.622C38.1917 369.271 39.3942 368.746 40.6129 368.046C41.894 367.327 43.085 366.534 44.1859 365.665C45.2683 364.734 46.1982 363.746 46.9755 362.701C47.7967 361.576 48.3405 360.43 48.607 359.265C47.4612 357.228 46.2345 355.147 44.927 353.021C43.6634 350.815 42.3374 348.627 40.9489 346.458C39.542 344.227 38.0911 342.076 36.5963 340.006C35.1014 337.936 33.5626 335.947 31.9798 334.039C31.8989 333.995 31.6435 333.935 31.2135 333.858C30.765 333.719 30.2401 334.01 29.6387 334.732ZM76.9358 382.048C73.7562 373.823 70.6389 365.58 67.5841 357.318C64.5732 348.975 61.4076 340.339 58.0872 331.409C57.644 329.91 58.234 328.921 59.8572 328.441L60.6064 328.219C60.7937 328.164 61.086 328.349 61.4835 328.775C61.8809 329.2 62.4076 330.063 63.0636 331.362C63.7636 332.581 64.6759 334.518 65.8005 337.172C66.9692 339.746 68.4495 343.144 70.2416 347.367C72.0337 351.589 74.2114 356.885 76.7747 363.256C76.83 358.623 76.6413 354.198 76.2086 349.981C75.7759 345.763 75.6726 341.856 75.8985 338.259C76.106 334.599 76.9017 331.207 78.2857 328.082C79.7321 324.938 82.3088 322.173 86.0159 319.787C88.3742 319.497 90.591 320.335 92.6662 322.301C94.7229 324.204 96.6649 326.753 98.4921 329.947C100.319 333.14 101.989 336.72 103.502 340.686C104.996 344.589 106.319 348.373 107.471 352.038C108.623 355.703 109.632 359.002 110.5 361.936C111.35 364.808 112.022 366.85 112.516 368.062C112.476 368.616 112.325 369.137 112.061 369.622C111.797 370.107 111.443 370.518 110.999 370.853C110.599 371.107 110.171 371.267 109.716 371.334C109.242 371.338 108.734 371.115 108.194 370.664C107.991 369.977 107.513 368.591 106.76 366.505C106.007 364.42 105.122 362 104.103 359.246C103.067 356.429 101.953 353.466 100.761 350.356C99.6135 347.165 98.5306 344.193 97.5123 341.439C96.538 338.604 95.6745 336.144 94.9217 334.058C94.169 331.972 93.6599 330.595 93.3943 329.927C91.4 328.005 89.7012 327.082 88.2978 327.157C86.9569 327.214 85.7971 327.999 84.8185 329.51C83.9023 331.003 83.1927 333.08 82.6898 335.741C82.1868 338.402 81.8387 341.356 81.6453 344.604C81.4334 347.79 81.3302 351.114 81.3355 354.574C81.3408 358.035 81.4433 361.366 81.6429 364.566C81.8241 367.703 82.0251 370.563 82.2458 373.145C82.5105 375.647 82.7744 377.572 83.0373 378.92C82.9793 379.412 82.7027 379.969 82.2077 380.591C81.7566 381.132 81.2154 381.597 80.5841 381.988C80.0152 382.36 79.3781 382.616 78.6729 382.757C78.0117 382.816 77.4327 382.58 76.9358 382.048ZM145.592 360.416C144.8 358.886 143.947 357.033 143.032 354.86C142.162 352.605 141.26 350.36 140.327 348.124C139.376 345.825 138.408 343.701 137.424 341.752C136.502 339.784 135.504 338.246 134.43 337.138C133.166 344.573 131.871 350.523 130.544 354.989C129.199 359.393 127.83 362.683 126.437 364.86C125.089 366.957 123.781 368.158 122.514 368.465C121.246 368.772 120.05 368.515 118.925 367.694C117.799 366.872 116.809 365.705 115.954 364.193C115.144 362.6 114.463 361.104 113.914 359.705C113.508 358.331 113.247 356.304 113.133 353.622C113.019 350.94 113.058 347.975 113.251 344.727C113.426 341.416 113.779 338.019 114.31 334.535C114.904 331.033 115.674 327.784 116.621 324.788C117.568 321.792 118.707 319.215 120.037 317.056C121.367 314.897 122.938 313.55 124.748 313.015C127.304 311.784 129.446 311.795 131.174 313.049C132.947 314.222 133.982 316.801 134.278 320.787C135.497 324.908 136.696 328.389 137.876 331.231C139.119 334.054 140.324 336.753 141.493 339.326C142.724 341.882 143.929 344.58 145.11 347.422C146.352 350.246 147.583 353.717 148.801 357.838C149.023 358.587 149.123 359.27 149.102 359.888C149.125 360.424 148.45 360.895 147.076 361.301C146.889 361.357 146.593 361.275 146.189 361.055C145.847 360.817 145.648 360.604 145.592 360.416ZM128.154 320.053C127.172 319.257 126.208 319.44 125.262 320.603C124.315 321.765 123.464 323.477 122.707 325.738C121.95 327.998 121.272 330.643 120.674 333.671C120.076 336.699 119.581 339.731 119.189 342.767C118.797 345.802 118.524 348.666 118.37 351.36C118.198 353.99 118.187 356.132 118.336 357.786C119.001 360.033 119.723 361.211 120.502 361.32C121.263 361.367 121.995 360.743 122.698 359.449C123.401 358.154 124.1 356.386 124.795 354.144C125.552 351.883 126.21 349.516 126.768 347.043C127.389 344.551 127.934 342.149 128.405 339.837C128.938 337.507 129.332 335.625 129.587 334.192C129.761 332.715 129.838 331.368 129.817 330.152C129.797 328.936 129.733 327.801 129.625 326.746C129.56 325.611 129.371 324.513 129.058 323.452C128.806 322.372 128.505 321.239 128.154 320.053ZM117.304 310.227C115.508 310.351 114.377 309.972 113.913 309.091C113.511 308.192 113.541 307.029 114.001 305.602C114.444 304.114 115.18 302.47 116.209 300.672C117.22 298.812 118.25 297.013 119.298 295.278C120.359 294.964 121.16 295.032 121.701 295.483C122.242 295.934 122.623 296.534 122.845 297.284L123.039 297.939C123.135 298.725 123.001 299.648 122.635 300.706C122.269 301.765 121.779 302.861 121.163 303.993C120.548 305.126 119.861 306.246 119.102 307.353C118.405 308.441 117.806 309.399 117.304 310.227ZM155.388 354.973C154.976 351.972 154.195 348.299 153.046 343.954C151.959 339.591 150.664 334.984 149.161 330.133C147.721 325.264 146.141 320.266 144.421 315.139C142.701 310.013 141.001 305.186 139.323 300.659C137.625 296.069 136.014 291.997 134.487 288.443C133.023 284.87 131.759 282.087 130.694 280.094C131.145 279.553 131.53 279.133 131.849 278.835C132.212 278.456 132.675 278.184 133.237 278.017C133.674 277.888 134.076 277.871 134.443 277.966C134.793 277.999 135.135 278.237 135.47 278.681C140.338 290.548 144.828 302.629 148.939 314.923C153.114 327.199 157.144 339.449 161.032 351.674C161.198 352.236 161.429 353.016 161.725 354.015C162.002 354.952 162.118 355.46 162.074 355.541C161.329 356.237 160.614 356.686 159.927 356.889C159.222 357.03 158.542 357.027 157.888 356.881C157.215 356.673 156.658 356.397 156.217 356.052C155.775 355.707 155.499 355.348 155.388 354.973ZM168.983 354.109C167.782 350.051 166.424 345.802 164.907 341.363C163.453 336.904 161.958 332.424 160.422 327.922C158.931 323.34 157.561 318.823 156.312 314.372C155.064 309.921 154.117 305.686 153.471 301.667C153.577 301.568 153.849 301.454 154.286 301.324C154.767 301.114 155.101 300.982 155.289 300.926C156.163 300.668 156.896 300.621 157.487 300.785C158.123 300.868 158.579 301.378 158.856 302.315C159.946 305.998 161.106 310.034 162.336 314.423C163.61 318.731 164.881 323.141 166.148 327.655C167.459 332.087 168.761 336.489 170.054 340.859C171.346 345.229 172.581 349.175 173.759 352.696C174.135 353.739 174.12 354.49 173.713 354.95C173.386 355.454 172.88 355.808 172.193 356.011C171.444 356.232 170.764 356.23 170.154 356.003C169.562 355.838 169.172 355.207 168.983 354.109ZM147.09 287.668C146.868 286.919 146.97 286.346 147.396 285.948C147.821 285.551 148.346 285.26 148.971 285.075C150.219 284.706 151.12 284.881 151.672 285.6C152.224 286.319 152.657 287.209 152.971 288.271C152.8 289.068 152.479 289.706 152.009 290.185C151.521 290.601 150.947 290.838 150.286 290.898C149.668 290.877 149.049 290.619 148.427 290.124C147.868 289.61 147.422 288.792 147.09 287.668ZM187.757 349.065C187.775 349.127 188.32 348.559 189.391 347.359C190.524 346.142 191.802 344.609 193.225 342.763C194.692 340.835 196.162 338.805 197.636 336.672C199.091 334.476 200.23 332.476 201.054 330.671C201.878 328.865 202.173 327.454 201.94 326.437C201.751 325.338 200.705 324.901 198.803 325.124C196.463 325.477 194.568 326.071 193.118 326.908C191.73 327.725 190.486 328.569 189.385 329.437C188.284 330.306 187.237 331.125 186.242 331.895C185.31 332.646 184.17 333.153 182.822 333.416C180.075 334.228 177.922 333.949 176.362 332.577C174.846 331.124 173.654 328.931 172.786 325.997C171.918 323.062 171.752 320.09 172.288 317.08C172.805 314.008 173.807 311.2 175.295 308.655C176.782 306.11 178.702 303.879 181.054 301.961C183.388 299.981 185.96 298.575 188.769 297.744C189.893 297.412 190.888 297.219 191.755 297.167C192.622 297.114 193.24 297.712 193.61 298.96C193.868 299.834 193.743 300.788 193.234 301.821C192.706 302.792 191.974 303.416 191.038 303.693C190.975 303.711 190.81 303.726 190.542 303.738C190.255 303.687 189.959 303.604 189.654 303.491C189.349 303.378 189.062 303.327 188.794 303.338C188.507 303.287 188.333 303.271 188.27 303.289C186.106 303.318 184.254 304.172 182.714 305.849C181.173 307.527 179.94 309.555 179.014 311.934C178.132 314.231 177.587 316.633 177.377 319.139C177.15 321.583 177.294 323.679 177.811 325.427C178.015 326.113 178.306 326.638 178.685 327.002C179.108 327.284 179.565 327.454 180.058 327.512C180.613 327.552 181.18 327.519 181.76 327.416C182.385 327.231 183.009 327.046 183.633 326.862C184.882 326.492 186.075 325.936 187.213 325.192C188.413 324.429 189.533 323.623 190.571 322.773C191.672 321.904 192.791 321.098 193.929 320.354C195.129 319.591 196.416 319.007 197.79 318.601C198.414 318.416 199.156 318.4 200.016 318.553C200.857 318.644 201.692 318.94 202.519 319.442C203.328 319.882 204.081 320.474 204.776 321.219C205.453 321.901 205.971 322.733 206.329 323.713C206.962 324.476 207.178 325.668 206.979 327.289C206.842 328.891 206.42 330.679 205.714 332.653C205.008 334.627 204.061 336.706 202.874 338.89C201.669 341.012 200.427 343.009 199.147 344.881C197.849 346.691 196.509 348.241 195.126 349.533C193.761 350.887 192.508 351.699 191.365 351.969C190.117 352.339 189.257 352.186 188.786 351.51C188.377 350.816 188.034 350.001 187.757 349.065ZM212.624 321.24C212.33 321.395 211.89 321.627 211.302 321.936C210.715 322.246 210.069 322.471 209.363 322.612C208.658 322.752 208.01 322.74 207.418 322.576C206.764 322.43 206.326 321.983 206.104 321.233C205.975 320.796 205.976 320.456 206.108 320.214C206.24 319.971 206.469 319.598 206.795 319.094C207.836 317.564 208.567 315.786 208.986 313.761C209.449 311.655 209.792 309.484 210.012 307.246C210.214 304.945 210.457 302.667 210.74 300.411C211.067 298.074 211.584 295.918 212.29 293.944C212.996 291.97 214.075 290.225 215.528 288.709C216.98 287.193 218.996 286.088 221.574 285.393C222.635 285.079 223.895 284.978 225.354 285.09C226.813 285.201 228.233 285.528 229.616 286.07C230.979 286.549 232.211 287.271 233.311 288.235C234.411 289.2 235.174 290.4 235.598 291.836C236.058 292.243 235.958 293.053 235.299 294.267C234.702 295.462 233.789 296.852 232.561 298.437C231.314 299.96 229.867 301.61 228.22 303.388C226.617 305.084 225.058 306.699 223.543 308.233C222.028 309.768 220.695 311.113 219.543 312.268C218.391 313.424 217.652 314.253 217.326 314.757C217.198 315.474 217.161 316.266 217.214 317.133C217.267 318 217.341 318.826 217.438 319.612C217.579 320.317 217.71 320.991 217.832 321.634C217.999 322.196 218.128 322.633 218.22 322.945C218.571 324.131 218.897 325.461 219.196 326.934C219.559 328.388 220.027 329.743 220.602 330.999C221.221 332.173 222.066 333.078 223.136 333.712C224.188 334.283 225.681 334.283 227.617 333.71C229.677 333.101 231.465 332.029 232.98 330.495C234.476 328.898 235.783 327.119 236.901 325.159C238.018 323.199 238.943 321.161 239.674 319.043C240.468 316.908 241.143 314.943 241.699 313.149C242.299 311.274 242.856 309.717 243.373 308.478C243.889 307.24 244.428 306.537 244.99 306.371C245.614 306.186 246.306 306.117 247.067 306.164C247.871 306.129 248.394 306.518 248.634 307.33C248.966 308.453 248.895 309.934 248.42 311.772C248.008 313.591 247.311 315.596 246.33 317.788C245.411 319.96 244.242 322.207 242.824 324.528C241.45 326.767 239.998 328.86 238.469 330.806C236.921 332.689 235.341 334.345 233.726 335.773C232.093 337.139 230.559 338.034 229.123 338.459C226.314 339.29 223.988 339.231 222.146 338.282C220.304 337.333 218.766 335.921 217.532 334.046C216.361 332.152 215.402 330.059 214.657 327.767C213.955 325.395 213.277 323.219 212.624 321.24ZM222.376 290.859C221.315 291.173 220.348 292.036 219.475 293.448C218.585 294.798 217.83 296.379 217.212 298.191C216.638 299.922 216.238 301.67 216.013 303.434C215.832 305.117 215.889 306.458 216.185 307.457C217.121 307.18 218.362 306.439 219.907 305.236C221.496 303.951 223.007 302.519 224.441 300.941C225.876 299.363 227.073 297.786 228.033 296.212C228.993 294.638 229.316 293.321 229.002 292.259C228.836 291.698 228.479 291.294 227.931 291.049C227.383 290.803 226.76 290.648 226.062 290.583C225.427 290.5 224.778 290.488 224.117 290.548C223.456 290.607 222.875 290.711 222.376 290.859ZM307.019 315.01C306.315 313.318 305.457 310.991 304.446 308.032C303.434 305.072 302.349 301.863 301.19 298.403C300.013 294.882 298.767 291.245 297.453 287.492C296.202 283.72 294.975 280.146 293.772 276.767C292.569 273.389 291.396 270.341 290.253 267.624C289.172 264.889 288.227 262.725 287.416 261.131C287.046 259.883 287.115 259.082 287.622 258.728C288.11 258.312 288.791 257.975 289.665 257.716C289.789 257.679 290.07 257.596 290.507 257.467C290.944 257.338 291.266 257.277 291.472 257.284C292.587 258.99 293.651 261.324 294.662 264.283C295.717 267.162 296.793 270.34 297.89 273.818C299.049 277.277 300.213 280.871 301.384 284.598C302.617 288.307 303.888 291.801 305.197 295.08C304.612 289.889 304.121 285.588 303.722 282.175C303.386 278.744 303.182 275.987 303.109 273.904C303.08 271.74 303.145 270.125 303.305 269.059C303.509 267.913 303.846 267.1 304.316 266.622C304.848 266.125 305.466 265.806 306.171 265.666C306.921 265.444 307.795 265.185 308.793 264.89C309.917 264.558 310.952 264.727 311.897 265.398C312.905 266.05 313.799 267.008 314.58 268.27C315.423 269.515 316.178 270.921 316.846 272.488C317.576 274.038 318.265 275.565 318.914 277.07C319.545 278.513 320.138 279.831 320.695 281.025C321.314 282.199 321.947 282.963 322.594 283.314C322.788 278.233 323.013 274.059 323.269 270.792C323.525 267.525 323.809 264.929 324.122 263.004C324.417 261.015 324.766 259.555 325.168 258.621C325.571 257.687 326.004 257.084 326.466 256.811C326.91 256.476 327.338 256.316 327.749 256.33C328.223 256.325 328.679 256.258 329.116 256.129C330.801 255.631 332.34 256.126 333.731 257.616C335.561 260.129 337.042 262.611 338.173 265.06C339.286 267.446 340.225 269.816 340.989 272.17C341.735 274.462 342.391 276.678 342.956 278.819C343.584 280.942 344.256 282.983 344.971 284.944C345.75 286.887 346.675 288.751 347.747 290.539C348.881 292.308 350.381 293.935 352.246 295.42C352.042 296.567 351.745 297.402 351.357 297.924C350.95 298.384 350.309 298.743 349.435 299.002C348.686 299.223 347.956 299.167 347.247 298.834C346.519 298.438 345.857 297.921 345.26 297.283C344.646 296.582 344.094 295.863 343.604 295.125C343.176 294.369 342.777 293.706 342.405 293.138C339.514 284.284 337.087 277.568 335.121 272.989C333.2 268.33 331.672 266.032 330.537 266.096C329.401 266.161 328.646 268.658 328.272 273.589C327.941 278.44 327.944 285.907 328.279 295.992C328.184 296.36 327.958 296.63 327.602 296.803C327.246 296.976 326.85 297.128 326.413 297.257C326.038 297.368 325.632 297.488 325.195 297.617C324.802 297.665 324.428 297.776 324.071 297.949C319.796 289.234 316.537 283.035 314.294 279.354C312.095 275.591 310.603 274.335 309.818 275.585C309.034 276.836 308.845 280.558 309.251 286.752C309.639 292.883 310.345 301.466 311.369 312.502L307.019 315.01ZM355.621 278.943C355.327 279.097 354.886 279.33 354.299 279.639C353.712 279.949 353.065 280.174 352.36 280.314C351.655 280.455 351.006 280.443 350.415 280.279C349.761 280.133 349.323 279.685 349.101 278.936C348.972 278.499 348.973 278.159 349.105 277.917C349.237 277.674 349.466 277.301 349.792 276.797C350.833 275.267 351.563 273.489 351.983 271.464C352.446 269.358 352.788 267.186 353.009 264.949C353.211 262.648 353.454 260.37 353.737 258.114C354.064 255.777 354.58 253.621 355.287 251.647C355.993 249.673 357.072 247.928 358.524 246.412C359.977 244.896 361.992 243.791 364.571 243.096C365.632 242.782 366.892 242.681 368.351 242.793C369.809 242.904 371.23 243.231 372.612 243.772C373.976 244.252 375.208 244.974 376.308 245.938C377.408 246.903 378.17 248.103 378.595 249.539C379.055 249.946 378.955 250.756 378.296 251.97C377.699 253.165 376.786 254.555 375.558 256.14C374.311 257.663 372.864 259.313 371.217 261.09C369.614 262.787 368.055 264.402 366.54 265.936C365.025 267.471 363.692 268.816 362.54 269.971C361.388 271.126 360.649 271.956 360.323 272.46C360.195 273.177 360.158 273.968 360.211 274.835C360.263 275.702 360.338 276.529 360.435 277.315C360.575 278.02 360.707 278.694 360.829 279.337C360.995 279.899 361.125 280.336 361.217 280.648C361.568 281.834 361.893 283.164 362.193 284.637C362.555 286.091 363.024 287.446 363.599 288.702C364.218 289.876 365.063 290.781 366.133 291.415C367.185 291.986 368.678 291.986 370.613 291.413C372.674 290.804 374.461 289.732 375.976 288.198C377.473 286.601 378.78 284.822 379.897 282.862C381.015 280.902 381.94 278.864 382.671 276.746C383.465 274.61 384.14 272.646 384.696 270.852C385.295 268.977 385.853 267.42 386.369 266.181C386.885 264.942 387.424 264.24 387.986 264.074C388.611 263.889 389.303 263.82 390.064 263.867C390.868 263.832 391.391 264.221 391.631 265.032C391.963 266.156 391.892 267.637 391.417 269.475C391.005 271.294 390.308 273.299 389.327 275.491C388.408 277.663 387.239 279.91 385.821 282.23C384.446 284.47 382.995 286.563 381.466 288.509C379.918 290.392 378.337 292.048 376.723 293.476C375.09 294.842 373.556 295.737 372.12 296.161C369.31 296.992 366.985 296.934 365.142 295.985C363.3 295.036 361.762 293.624 360.529 291.748C359.357 289.854 358.399 287.762 357.653 285.47C356.952 283.098 356.274 280.922 355.621 278.943ZM365.373 248.562C364.311 248.876 363.344 249.739 362.472 251.151C361.581 252.501 360.827 254.082 360.209 255.894C359.635 257.625 359.235 259.373 359.01 261.137C358.829 262.82 358.886 264.161 359.182 265.16C360.118 264.883 361.359 264.142 362.904 262.938C364.493 261.654 366.004 260.222 367.438 258.644C368.872 257.065 370.069 255.489 371.03 253.915C371.99 252.341 372.313 251.024 371.999 249.962C371.833 249.4 371.476 248.997 370.928 248.752C370.38 248.506 369.757 248.351 369.059 248.286C368.423 248.202 367.775 248.191 367.114 248.25C366.452 248.31 365.872 248.414 365.373 248.562ZM423.755 268.973C423.727 269.796 423.407 271.011 422.796 272.617C422.229 274.143 421.484 275.755 420.561 277.454C419.619 279.09 418.578 280.62 417.438 282.044C416.341 283.387 415.262 284.215 414.201 284.529C412.203 285.12 410.272 284.673 408.407 283.188C406.604 281.684 404.925 279.567 403.371 276.836C401.816 274.105 400.388 270.997 399.085 267.512C397.765 263.965 396.565 260.484 395.487 257.069C394.409 253.653 393.454 250.541 392.623 247.732C391.792 244.922 391.071 242.827 390.459 241.447C390.524 240.749 390.725 240.282 391.063 240.046C391.463 239.792 391.944 239.582 392.506 239.416C393.005 239.268 393.461 239.201 393.872 239.215C394.346 239.211 394.832 239.475 395.329 240.007C395.532 240.693 395.873 241.848 396.353 243.471C396.896 245.076 397.534 246.89 398.269 248.913C398.984 250.874 399.737 252.96 400.527 255.17C401.298 257.319 402.01 259.382 402.664 261.362C403.379 263.322 404.009 265.105 404.551 266.71C405.138 268.234 405.573 269.361 405.857 270.092C406.049 270.51 406.323 271.21 406.681 272.19C407.102 273.152 407.572 274.167 408.091 275.236C408.655 276.223 409.222 277.108 409.793 277.889C410.426 278.653 411.033 278.982 411.613 278.879C412.549 278.602 413.366 277.919 414.062 276.83C414.821 275.723 415.484 274.407 416.051 272.881C416.618 271.356 417.086 269.724 417.454 267.985C417.823 266.247 418.116 264.599 418.334 263.04C418.596 261.401 418.717 259.974 418.697 258.758C418.739 257.523 418.717 256.647 418.632 256.129C418.443 255.031 418.125 253.496 417.677 251.523C417.211 249.489 416.677 247.338 416.074 245.072C415.472 242.806 414.875 240.675 414.285 238.677C413.756 236.661 413.335 235.122 413.021 234.06L418.255 232.818C419.813 237.856 421.139 242.454 422.233 246.611C423.308 250.706 424.413 254.555 425.546 258.158C426.661 261.698 427.967 265.079 429.464 268.303C430.96 271.526 432.9 274.755 435.282 277.988C435.15 278.231 434.849 278.591 434.379 279.069C433.928 279.61 433.578 279.918 433.328 279.991C431.768 280.453 430.549 280.236 429.673 279.341C428.879 278.49 428.184 277.405 427.591 276.087C427.041 274.688 426.501 273.321 425.97 271.984C425.483 270.567 424.744 269.563 423.755 268.973ZM477.159 241.567C476.682 239.264 476.149 236.774 475.561 234.096C474.954 231.357 474.45 228.62 474.049 225.887C473.71 223.136 473.502 220.482 473.425 217.925C473.41 215.349 473.665 212.999 474.191 210.875C474.761 208.67 475.7 206.796 477.01 205.255C478.3 203.651 480.11 202.539 482.438 201.918C483.999 201.456 485.379 201.761 486.579 202.832C487.841 203.884 488.904 205.301 489.771 207.081C490.699 208.843 491.459 210.723 492.05 212.721C492.685 214.638 493.187 216.221 493.556 217.469C492.308 217.839 491.121 217.613 489.995 216.791C488.851 215.908 487.848 214.813 486.986 213.506C486.125 212.199 485.397 210.887 484.803 209.569L483.719 206.936C483.657 206.955 483.532 206.992 483.345 207.047C483.201 207.022 483.098 207.018 483.036 207.037C481.975 207.351 481.151 208.239 480.566 209.702C480.043 211.147 479.652 212.926 479.395 215.039C479.181 217.071 479.135 219.325 479.256 221.801C479.359 224.215 479.546 226.57 479.818 228.865C480.09 231.161 480.378 233.283 480.682 235.229C481.03 237.095 481.352 238.528 481.648 239.526C482.003 241.187 482.529 242.966 483.227 244.864C483.924 246.763 484.834 248.462 485.957 249.963C487.08 251.464 488.388 252.673 489.881 253.589C491.355 254.443 493.094 254.811 495.096 254.694C497.406 254.011 499.186 253.145 500.438 252.096C501.689 251.047 502.595 249.862 503.155 248.543C503.777 247.204 504.144 245.806 504.256 244.347C504.368 242.888 504.439 241.407 504.47 239.905C504.544 238.321 504.628 236.769 504.721 235.247C504.815 233.726 505.154 232.234 505.74 230.771C506.433 230.362 506.973 230.236 507.359 230.394C507.789 230.47 508.122 230.677 508.358 231.015C508.593 231.352 508.785 231.771 508.933 232.27L509.238 233.301C510.013 235.923 510.324 238.58 510.17 241.274C510.016 243.967 509.383 246.531 508.27 248.965C507.138 251.336 505.561 253.466 503.54 255.354C501.562 257.161 499.075 258.507 496.079 259.394C493.581 260.132 491.259 259.971 489.112 258.908C487.009 257.765 485.156 256.209 483.555 254.238C482.016 252.249 480.699 250.093 479.605 247.769C478.491 245.382 477.676 243.315 477.159 241.567ZM541.561 234.127C541.533 234.95 541.213 236.165 540.602 237.771C540.035 239.297 539.29 240.909 538.367 242.608C537.425 244.244 536.384 245.774 535.244 247.198C534.147 248.541 533.068 249.369 532.007 249.683C530.009 250.274 528.078 249.827 526.213 248.342C524.41 246.838 522.731 244.721 521.177 241.99C519.622 239.259 518.194 236.151 516.891 232.666C515.571 229.119 514.371 225.638 513.293 222.223C512.215 218.807 511.261 215.695 510.43 212.886C509.599 210.076 508.877 207.981 508.265 206.601C508.33 205.903 508.531 205.436 508.869 205.2C509.269 204.946 509.75 204.736 510.312 204.57C510.811 204.422 511.267 204.355 511.678 204.369C512.152 204.365 512.638 204.629 513.135 205.161C513.338 205.847 513.679 207.002 514.159 208.625C514.702 210.23 515.34 212.044 516.075 214.067C516.79 216.028 517.543 218.114 518.333 220.325C519.104 222.473 519.816 224.536 520.47 226.516C521.185 228.477 521.815 230.259 522.357 231.864C522.944 233.388 523.379 234.515 523.663 235.246C523.855 235.664 524.129 236.364 524.487 237.344C524.908 238.306 525.378 239.321 525.897 240.39C526.461 241.377 527.028 242.262 527.599 243.043C528.232 243.807 528.839 244.136 529.419 244.033C530.355 243.756 531.172 243.073 531.868 241.984C532.627 240.877 533.29 239.561 533.857 238.035C534.424 236.51 534.892 234.878 535.261 233.139C535.629 231.401 535.922 229.753 536.14 228.194C536.402 226.555 536.523 225.128 536.503 223.912C536.545 222.677 536.523 221.801 536.438 221.283C536.249 220.185 535.931 218.65 535.483 216.677C535.017 214.643 534.483 212.492 533.881 210.226C533.278 207.96 532.682 205.829 532.091 203.831C531.562 201.815 531.141 200.276 530.827 199.214L536.061 197.972C537.619 203.01 538.945 207.608 540.039 211.766C541.114 215.86 542.219 219.709 543.352 223.312C544.467 226.852 545.773 230.233 547.27 233.457C548.766 236.68 550.706 239.909 553.088 243.142C552.956 243.385 552.655 243.745 552.186 244.224C551.734 244.764 551.384 245.072 551.134 245.145C549.574 245.607 548.355 245.39 547.479 244.495C546.685 243.644 545.99 242.56 545.397 241.241C544.847 239.843 544.307 238.475 543.776 237.138C543.289 235.721 542.55 234.717 541.561 234.127ZM544.814 195.892L544.593 195.143C544.408 194.518 544.497 194.017 544.861 193.638C545.286 193.24 545.811 192.949 546.435 192.765C546.935 192.617 547.422 192.541 547.896 192.536C548.351 192.469 548.796 192.711 549.23 193.262C549.695 194.143 550.27 195.398 550.956 197.029C551.623 198.596 552.377 200.342 553.218 202.266C554.058 204.19 554.936 206.239 555.85 208.412C556.809 210.505 557.708 212.514 558.549 214.437C559.434 216.28 560.263 217.936 561.037 219.405C561.81 220.873 562.505 221.958 563.119 222.658C561.159 216.721 559.814 211.483 559.083 206.947C558.334 202.348 558.333 198.445 559.082 195.236C559.874 191.947 561.486 189.365 563.919 187.491C566.396 185.536 569.819 184.253 574.186 183.64C576.121 183.067 577.394 183.811 578.003 185.871C578.243 186.683 577.879 187.402 576.91 188.028C575.922 188.591 574.792 189.129 573.518 189.642C572.225 190.092 570.973 190.565 569.761 191.059C568.549 191.553 567.737 192.133 567.322 192.799C565.444 194.712 564.425 197.118 564.264 200.017C564.165 202.898 564.455 206.173 565.133 209.842C565.811 213.511 566.684 217.496 567.753 221.797C568.865 226.017 569.734 230.445 570.358 235.08C570.543 235.705 570.431 236.247 570.024 236.707C569.617 237.166 569.039 237.507 568.29 237.729C567.603 237.932 566.87 237.979 566.091 237.87C565.375 237.742 564.737 237.422 564.177 236.908L544.814 195.892ZM582.835 184.646L582.613 183.897C582.428 183.272 582.518 182.771 582.881 182.392C583.306 181.994 583.831 181.703 584.456 181.519C584.955 181.371 585.442 181.295 585.916 181.29C586.371 181.223 586.816 181.465 587.25 182.016C587.715 182.897 588.29 184.152 588.976 185.783C589.643 187.35 590.397 189.096 591.238 191.02C592.078 192.944 592.956 194.993 593.87 197.166C594.829 199.259 595.728 201.268 596.569 203.191C597.454 205.034 598.283 206.69 599.057 208.159C599.831 209.627 600.525 210.712 601.139 211.412C599.179 205.475 597.834 200.237 597.103 195.701C596.354 191.102 596.353 187.199 597.102 183.99C597.894 180.701 599.507 178.119 601.94 176.245C604.416 174.29 607.839 173.007 612.206 172.394C614.142 171.821 615.414 172.565 616.023 174.625C616.263 175.437 615.899 176.156 614.93 176.782C613.942 177.345 612.812 177.884 611.538 178.396C610.245 178.846 608.993 179.319 607.781 179.813C606.57 180.307 605.757 180.887 605.343 181.553C603.464 183.466 602.445 185.872 602.284 188.771C602.186 191.652 602.475 194.927 603.153 198.596C603.831 202.265 604.704 206.25 605.773 210.551C606.885 214.771 607.754 219.199 608.378 223.834C608.563 224.459 608.451 225.001 608.044 225.461C607.637 225.92 607.059 226.261 606.31 226.483C605.623 226.686 604.89 226.733 604.111 226.624C603.395 226.496 602.757 226.176 602.197 225.662L582.835 184.646ZM635.15 216.221C633.95 212.163 632.591 207.914 631.074 203.475C629.62 199.016 628.125 194.536 626.59 190.034C625.098 185.451 623.728 180.935 622.48 176.484C621.231 172.032 620.284 167.798 619.638 163.779C619.745 163.68 620.017 163.566 620.454 163.436C620.934 163.226 621.269 163.093 621.456 163.038C622.33 162.78 623.063 162.732 623.655 162.897C624.29 162.98 624.747 163.49 625.024 164.427C626.113 168.11 627.273 172.146 628.503 176.535C629.777 180.843 631.048 185.253 632.315 189.767C633.626 194.199 634.928 198.6 636.221 202.971C637.514 207.341 638.749 211.287 639.926 214.808C640.302 215.851 640.287 216.602 639.88 217.062C639.554 217.566 639.047 217.92 638.36 218.123C637.611 218.344 636.932 218.342 636.321 218.115C635.73 217.95 635.339 217.319 635.15 216.221ZM617.203 150.039C615.425 150.225 614.304 149.878 613.84 148.997C613.42 148.035 613.44 146.841 613.901 145.414C614.361 143.988 615.107 142.376 616.136 140.578C617.147 138.717 618.177 136.919 619.225 135.183C620.286 134.869 621.088 134.938 621.628 135.389C622.169 135.84 622.55 136.44 622.772 137.189L622.966 137.845C623.044 138.568 622.9 139.46 622.534 140.518C622.169 141.577 621.678 142.673 621.063 143.805C620.447 144.938 619.76 146.057 619.001 147.164C618.305 148.253 617.705 149.211 617.203 150.039ZM640.571 193.231C640.093 190.928 639.56 188.438 638.972 185.761C638.365 183.021 637.861 180.285 637.46 177.552C637.122 174.8 636.914 172.146 636.836 169.589C636.821 167.014 637.077 164.664 637.603 162.539C638.172 160.334 639.112 158.461 640.421 156.919C641.712 155.315 643.521 154.203 645.85 153.582C647.411 153.12 648.791 153.425 649.99 154.496C651.252 155.549 652.316 156.965 653.182 158.746C654.111 160.508 654.87 162.388 655.461 164.386C656.096 166.302 656.598 167.885 656.968 169.134C655.719 169.503 654.532 169.277 653.406 168.456C652.262 167.572 651.26 166.477 650.398 165.17C649.536 163.864 648.808 162.551 648.215 161.233L647.131 158.601C647.068 158.619 646.943 158.656 646.756 158.712C646.613 158.686 646.51 158.683 646.447 158.701C645.386 159.015 644.563 159.903 643.977 161.367C643.454 162.811 643.064 164.59 642.806 166.703C642.592 168.735 642.546 170.989 642.668 173.465C642.77 175.879 642.958 178.234 643.23 180.53C643.501 182.826 643.789 184.947 644.094 186.894C644.442 188.76 644.764 190.192 645.059 191.191C645.414 192.851 645.941 194.63 646.638 196.529C647.335 198.427 648.245 200.127 649.368 201.628C650.491 203.129 651.799 204.337 653.292 205.253C654.767 206.107 656.505 206.476 658.507 206.359C660.817 205.675 662.598 204.809 663.849 203.76C665.1 202.711 666.006 201.527 666.566 200.207C667.189 198.869 667.556 197.47 667.667 196.011C667.779 194.553 667.85 193.072 667.881 191.569C667.956 189.985 668.04 188.433 668.133 186.912C668.226 185.391 668.565 183.898 669.151 182.435C669.845 182.026 670.385 181.901 670.771 182.058C671.201 182.135 671.533 182.342 671.769 182.679C672.005 183.017 672.196 183.435 672.344 183.935L672.649 184.965C673.425 187.587 673.735 190.245 673.582 192.938C673.428 195.631 672.794 198.195 671.681 200.629C670.549 203 668.973 205.13 666.951 207.018C664.974 208.825 662.487 210.172 659.49 211.058C656.993 211.797 654.671 211.635 652.523 210.573C650.42 209.43 648.568 207.873 646.967 205.902C645.428 203.914 644.111 201.757 643.016 199.433C641.903 197.047 641.088 194.979 640.571 193.231ZM704.973 185.791C704.944 186.615 704.625 187.829 704.014 189.436C703.447 190.961 702.701 192.574 701.778 194.272C700.837 195.909 699.795 197.439 698.655 198.862C697.559 200.205 696.48 201.033 695.418 201.347C693.421 201.938 691.489 201.491 689.624 200.006C687.822 198.503 686.143 196.385 684.588 193.654C683.034 190.923 681.605 187.815 680.303 184.33C678.982 180.783 677.783 177.302 676.705 173.887C675.626 170.472 674.672 167.36 673.841 164.55C673.01 161.741 672.288 159.646 671.676 158.265C671.742 157.567 671.943 157.1 672.281 156.865C672.681 156.61 673.162 156.4 673.723 156.234C674.223 156.086 674.678 156.02 675.09 156.034C675.564 156.029 676.049 156.293 676.546 156.825C676.749 157.512 677.091 158.667 677.571 160.29C678.113 161.895 678.752 163.709 679.486 165.732C680.202 167.693 680.955 169.778 681.744 171.989C682.515 174.137 683.228 176.201 683.881 178.18C684.597 180.141 685.226 181.924 685.769 183.528C686.355 185.052 686.79 186.18 687.074 186.91C687.266 187.329 687.541 188.028 687.899 189.009C688.319 189.971 688.789 190.986 689.309 192.054C689.872 193.042 690.44 193.926 691.01 194.708C691.643 195.471 692.25 195.801 692.83 195.697C693.767 195.42 694.583 194.737 695.28 193.649C696.039 192.542 696.702 191.225 697.269 189.7C697.836 188.174 698.304 186.542 698.672 184.804C699.04 183.065 699.334 181.417 699.552 179.859C699.814 178.22 699.934 176.792 699.914 175.576C699.956 174.342 699.935 173.465 699.85 172.948C699.661 171.849 699.342 170.314 698.895 168.342C698.429 166.307 697.894 164.157 697.292 161.891C696.69 159.625 696.093 157.493 695.502 155.495C694.974 153.479 694.552 151.94 694.238 150.879L699.472 149.636C701.03 154.675 702.356 159.273 703.45 163.43C704.526 167.525 705.63 171.374 706.764 174.976C707.879 178.516 709.184 181.898 710.681 185.121C712.178 188.345 714.117 191.573 716.499 194.806C716.367 195.049 716.066 195.41 715.597 195.888C715.146 196.429 714.795 196.736 714.546 196.81C712.985 197.272 711.767 197.055 710.891 196.16C710.096 195.309 709.402 194.224 708.808 192.906C708.259 191.507 707.718 190.139 707.187 188.803C706.7 187.385 705.962 186.381 704.973 185.791ZM722.131 187.336C721.718 184.335 720.938 180.662 719.788 176.317C718.701 171.954 717.407 167.347 715.904 162.496C714.463 157.626 712.883 152.628 711.163 147.502C709.443 142.376 707.744 137.549 706.065 133.021C704.368 128.431 702.756 124.359 701.23 120.805C699.766 117.233 698.501 114.45 697.436 112.456C697.887 111.915 698.273 111.496 698.592 111.198C698.955 110.819 699.417 110.546 699.979 110.38C700.416 110.251 700.819 110.234 701.186 110.329C701.535 110.361 701.877 110.6 702.212 111.044C707.08 122.911 711.57 134.991 715.682 147.286C719.856 159.562 723.887 171.812 727.775 184.037C727.941 184.599 728.172 185.379 728.467 186.378C728.744 187.315 728.861 187.823 728.817 187.904C728.072 188.6 727.356 189.049 726.669 189.252C725.964 189.393 725.285 189.39 724.63 189.244C723.958 189.036 723.401 188.759 722.959 188.415C722.518 188.07 722.242 187.71 722.131 187.336ZM730.893 175.986C729.606 173.243 728.566 170.53 727.772 167.845C726.959 165.098 726.294 162.274 725.775 159.372C725.318 156.452 724.959 153.402 724.697 150.22C724.479 146.958 724.29 143.45 724.13 139.695C723.927 139.008 723.929 138.329 724.138 137.656C724.328 136.921 724.679 136.274 725.193 135.714C725.688 135.093 726.242 134.555 726.855 134.103C727.468 133.65 728.086 133.331 728.71 133.146C730.084 132.74 731.462 132.808 732.844 133.349C734.226 133.891 735.539 134.657 736.782 135.647C738.088 136.619 739.266 137.73 740.315 138.981C741.408 140.152 742.32 141.171 743.053 142.041C744.199 144.078 745.281 146.474 746.299 149.228C747.361 151.901 748.223 154.701 748.886 157.628C749.548 160.556 749.951 163.525 750.095 166.538C750.221 169.488 750.001 172.303 749.436 174.982C748.87 177.661 747.82 180.077 746.284 182.228C744.81 184.362 742.786 186.012 740.213 187.181C738.777 187.606 737.546 187.461 736.519 186.746C735.475 185.969 734.562 184.949 733.781 183.686C733.044 182.342 732.432 180.962 731.945 179.544C731.52 178.109 731.17 176.922 730.893 175.986ZM735.585 174.292C735.77 174.917 735.946 175.51 736.112 176.072C736.34 176.615 736.569 177.158 736.798 177.702C737.07 178.164 737.361 178.689 737.671 179.277C738.024 179.783 738.437 180.374 738.908 181.049L739.47 180.883C740.968 180.44 742.1 179.562 742.866 178.249C743.632 176.936 744.159 175.389 744.446 173.606C744.715 171.762 744.813 169.798 744.74 167.715C744.649 165.569 744.451 163.523 744.147 161.576C743.886 159.548 743.547 157.714 743.13 156.072C742.756 154.35 742.421 152.989 742.126 151.99L741.572 150.117C741.332 149.306 741.033 148.41 740.675 147.429C740.299 146.386 739.86 145.362 739.358 144.356C738.901 143.269 738.387 142.335 737.817 141.553C737.227 140.709 736.6 140.08 735.934 139.666C735.269 139.252 734.53 139.165 733.719 139.405C732.216 139.374 731.057 139.818 730.243 140.738C729.491 141.639 729.025 142.932 728.844 144.615C728.707 146.217 728.796 148.125 729.112 150.34C729.427 152.555 729.933 154.952 730.627 157.53C731.322 160.108 732.094 162.833 732.943 165.705C733.855 168.558 734.736 171.421 735.585 174.292ZM829.392 158.155C828.6 156.624 827.746 154.772 826.832 152.598C825.961 150.344 825.06 148.098 824.127 145.862C823.175 143.564 822.207 141.44 821.223 139.49C820.302 137.523 819.304 135.985 818.229 134.877C816.966 142.311 815.671 148.262 814.344 152.728C812.999 157.131 811.63 160.422 810.237 162.599C808.888 164.695 807.58 165.897 806.313 166.203C805.046 166.51 803.85 166.253 802.724 165.432C801.599 164.611 800.608 163.444 799.754 161.931C798.943 160.338 798.263 158.842 797.713 157.443C797.307 156.07 797.047 154.042 796.932 151.36C796.818 148.678 796.858 145.713 797.051 142.465C797.226 139.154 797.579 135.757 798.11 132.273C798.703 128.771 799.474 125.522 800.421 122.526C801.368 119.53 802.506 116.953 803.837 114.795C805.167 112.636 806.737 111.289 808.548 110.753C811.103 109.522 813.245 109.534 814.974 110.787C816.746 111.96 817.781 114.54 818.077 118.526C819.296 122.646 820.496 126.127 821.676 128.969C822.918 131.793 824.124 134.491 825.292 137.065C826.523 139.62 827.729 142.319 828.909 145.16C830.152 147.984 831.382 151.456 832.601 155.576C832.823 156.325 832.923 157.009 832.902 157.626C832.925 158.162 832.249 158.634 830.876 159.04C830.689 159.095 830.393 159.013 829.988 158.793C829.646 158.555 829.447 158.342 829.392 158.155ZM811.953 117.791C810.971 116.995 810.007 117.179 809.061 118.341C808.115 119.504 807.263 121.215 806.506 123.476C805.749 125.737 805.072 128.381 804.474 131.409C803.876 134.438 803.381 137.47 802.989 140.505C802.597 143.54 802.324 146.405 802.17 149.098C801.998 151.729 801.986 153.871 802.136 155.524C802.801 157.771 803.522 158.95 804.302 159.059C805.062 159.105 805.794 158.481 806.498 157.187C807.201 155.893 807.9 154.124 808.595 151.882C809.352 149.621 810.009 147.254 810.568 144.781C811.188 142.289 811.734 139.887 812.204 137.575C812.737 135.245 813.131 133.364 813.386 131.93C813.56 130.453 813.637 129.106 813.617 127.89C813.597 126.674 813.532 125.539 813.424 124.485C813.36 123.35 813.171 122.251 812.857 121.19C812.606 120.11 812.304 118.977 811.953 117.791ZM855.926 192.773C861.328 190.836 865.21 188.126 867.575 184.643C870.002 181.141 871.395 177.131 871.756 172.611C872.116 168.092 871.677 163.164 870.438 157.827C869.217 152.553 867.66 147.175 865.767 141.692C863.874 136.21 861.856 130.764 859.713 125.356C857.614 119.866 855.885 114.709 854.525 109.883C854.168 118.544 853.523 125.659 852.591 131.231C851.64 136.739 850.504 141.047 849.183 144.154C847.905 147.18 846.507 149.223 844.987 150.283C843.512 151.263 842.048 151.594 840.596 151.276C839.126 150.896 837.755 150.046 836.481 148.726C835.252 147.324 834.232 145.826 833.421 144.233C832.697 141.324 832.326 138.006 832.309 134.276C832.336 130.466 832.672 126.667 833.317 122.878C834.005 119.008 835.017 115.314 836.353 111.796C837.67 108.215 839.306 105.254 841.26 102.91C843.197 100.504 845.467 98.8824 848.07 98.0444C850.655 97.144 853.479 97.395 856.542 98.7974C856.623 98.8414 856.966 99.6565 857.571 101.243C858.22 102.748 859.026 104.784 859.988 107.351C860.995 109.837 862.104 112.666 863.314 115.838C864.568 118.93 865.809 122.093 867.037 125.328C868.247 128.501 869.389 131.557 870.463 134.499C871.536 137.44 872.49 139.975 873.324 142.105C874.626 145.59 875.587 149.413 876.207 153.575C876.889 157.718 877.223 161.829 877.207 165.907C877.21 170.048 876.826 174.031 876.057 177.857C875.35 181.664 874.187 184.962 872.567 187.749C871.01 190.518 868.941 192.59 866.36 193.964C863.86 195.382 860.85 195.764 857.329 195.108C857.142 195.163 856.852 195.215 856.459 195.263C856.084 195.374 855.744 195.373 855.439 195.259C855.197 195.127 855.092 194.887 855.124 194.538C855.157 194.189 855.424 193.601 855.926 192.773ZM838.097 142.137C839.294 143.888 840.401 144.647 841.418 144.414C842.479 144.1 843.409 143.112 844.208 141.45C844.988 139.726 845.704 137.443 846.357 134.602C847.073 131.742 847.693 128.674 848.217 125.396C848.741 122.118 849.215 118.786 849.64 115.402C850.109 111.937 850.548 108.717 850.959 105.744C850.756 105.058 850.415 104.48 849.937 104.01C849.44 103.478 848.698 103.494 847.71 104.058C846.073 104.949 844.605 106.3 843.308 108.109C842.072 109.901 841.023 111.976 840.159 114.336C839.34 116.615 838.679 119.085 838.176 121.746C837.717 124.326 837.392 126.9 837.201 129.469C837.054 131.956 837.036 134.304 837.146 136.512C837.318 138.701 837.635 140.577 838.097 142.137ZM876.699 132.858C875.412 130.115 874.372 127.402 873.578 124.717C872.765 121.97 872.1 119.146 871.581 116.244C871.124 113.324 870.765 110.273 870.503 107.092C870.285 103.83 870.096 100.321 869.936 96.5669C869.733 95.8801 869.735 95.2004 869.944 94.5278C870.134 93.7927 870.485 93.1455 870.999 92.5862C871.494 91.9646 872.048 91.4273 872.661 90.9745C873.274 90.5216 873.892 90.2028 874.516 90.0182C875.89 89.6119 877.268 89.6796 878.65 90.2212C880.032 90.7629 881.345 91.5287 882.589 92.5188C883.894 93.4904 885.072 94.6018 886.121 95.8531C887.214 97.0234 888.126 98.0434 888.859 98.913C890.005 100.95 891.087 103.346 892.105 106.1C893.167 108.773 894.029 111.573 894.692 114.5C895.354 117.428 895.757 120.397 895.901 123.41C896.027 126.36 895.807 129.175 895.242 131.854C894.676 134.533 893.626 136.949 892.09 139.1C890.616 141.233 888.592 142.884 886.019 144.053C884.583 144.478 883.352 144.333 882.325 143.618C881.281 142.841 880.368 141.821 879.587 140.558C878.85 139.214 878.238 137.834 877.751 136.416C877.327 134.98 876.976 133.794 876.699 132.858ZM881.391 131.164C881.576 131.789 881.752 132.382 881.918 132.944C882.146 133.487 882.375 134.03 882.604 134.574C882.876 135.036 883.167 135.561 883.477 136.149C883.83 136.655 884.243 137.246 884.714 137.921L885.276 137.755C886.774 137.312 887.906 136.434 888.672 135.121C889.438 133.808 889.965 132.261 890.252 130.478C890.521 128.633 890.619 126.67 890.546 124.586C890.455 122.441 890.257 120.395 889.953 118.448C889.692 116.42 889.353 114.586 888.936 112.944C888.562 111.222 888.227 109.861 887.932 108.862L887.378 106.989C887.138 106.177 886.839 105.281 886.481 104.301C886.105 103.258 885.666 102.234 885.165 101.228C884.707 100.141 884.193 99.2068 883.623 98.4251C883.034 97.581 882.406 96.9518 881.74 96.5377C881.075 96.1235 880.336 96.0365 879.525 96.2766C878.022 96.2458 876.863 96.6903 876.049 97.6101C875.297 98.5114 874.831 99.8035 874.65 101.487C874.513 103.089 874.602 104.997 874.918 107.212C875.233 109.427 875.739 111.824 876.433 114.402C877.128 116.98 877.9 119.705 878.749 122.577C879.661 125.43 880.542 128.292 881.391 131.164ZM892.801 92.9605L892.58 92.2113C892.395 91.587 892.484 91.0854 892.847 90.7064C893.273 90.309 893.798 90.0179 894.422 89.8332C894.922 89.6855 895.408 89.6094 895.882 89.605C896.338 89.5382 896.783 89.78 897.217 90.3304C897.681 91.2115 898.256 92.4671 898.942 94.0974C899.61 95.6651 900.364 97.411 901.204 99.3349C902.045 101.259 902.923 103.308 903.837 105.481C904.796 107.574 905.695 109.582 906.536 111.506C907.42 113.349 908.25 115.005 909.023 116.473C909.797 117.942 910.491 119.026 911.106 119.727C909.146 113.789 907.801 108.552 907.07 104.016C906.321 99.417 906.32 95.5134 907.068 92.3048C907.861 89.0153 909.473 86.4336 911.906 84.5598C914.383 82.6051 917.805 81.3212 922.173 80.7083C924.108 80.1358 925.381 80.8797 925.99 82.9399C926.23 83.7515 925.866 84.4703 924.897 85.0964C923.909 85.6601 922.778 86.1982 921.504 86.7109C920.212 87.1611 918.96 87.6333 917.748 88.1275C916.536 88.6217 915.723 89.2016 915.309 89.8672C913.431 91.7806 912.411 94.1868 912.251 97.0859C912.152 99.9665 912.442 103.241 913.12 106.911C913.798 110.58 914.671 114.565 915.74 118.866C916.852 123.086 917.72 127.513 918.345 132.149C918.529 132.773 918.418 133.315 918.011 133.775C917.604 134.235 917.026 134.576 916.277 134.797C915.59 135.001 914.857 135.048 914.078 134.939C913.361 134.811 912.723 134.491 912.164 133.977L892.801 92.9605ZM970.048 116.55C969.255 115.019 968.402 113.167 967.487 110.993C966.617 108.739 965.715 106.494 964.782 104.258C963.831 101.959 962.863 99.8352 961.879 97.8858C960.957 95.9179 959.959 94.38 958.885 93.2721C957.621 100.707 956.326 106.657 955 111.123C953.654 115.527 952.285 118.817 950.892 120.994C949.544 123.09 948.236 124.292 946.969 124.599C945.702 124.906 944.505 124.649 943.38 123.827C942.254 123.006 941.264 121.839 940.409 120.327C939.599 118.734 938.918 117.237 938.369 115.838C937.963 114.465 937.702 112.437 937.588 109.755C937.474 107.074 937.513 104.109 937.707 100.86C937.881 97.5498 938.234 94.1526 938.765 90.6688C939.359 87.1665 940.129 83.9175 941.076 80.9217C942.023 77.9259 943.162 75.3486 944.492 73.1899C945.822 71.0312 947.393 69.6841 949.203 69.1485C951.759 67.9175 953.901 67.9289 955.629 69.1827C957.402 70.3557 958.437 72.9351 958.733 76.921C959.952 81.0414 961.151 84.5226 962.331 87.3645C963.574 90.1879 964.779 92.8864 965.948 95.4602C967.179 98.0154 968.385 100.714 969.565 103.556C970.807 106.379 972.038 109.851 973.257 113.972C973.478 114.721 973.578 115.404 973.557 116.021C973.58 116.558 972.905 117.029 971.531 117.435C971.344 117.491 971.048 117.408 970.644 117.189C970.302 116.95 970.103 116.738 970.048 116.55ZM952.609 76.1864C951.627 75.3907 950.663 75.574 949.717 76.7365C948.77 77.8989 947.919 79.6105 947.162 81.8712C946.405 84.1319 945.727 86.7764 945.129 89.8048C944.532 92.8331 944.037 95.865 943.644 98.9003C943.252 101.936 942.979 104.8 942.825 107.493C942.653 110.124 942.642 112.266 942.791 113.919C943.456 116.167 944.178 117.345 944.957 117.454C945.718 117.501 946.45 116.877 947.153 115.582C947.857 114.288 948.556 112.52 949.25 110.278C950.007 108.017 950.665 105.65 951.223 103.176C951.844 100.684 952.39 98.2825 952.86 95.9708C953.393 93.6406 953.787 91.7589 954.042 90.3256C954.216 88.8484 954.293 87.5017 954.272 86.2857C954.252 85.0696 954.188 83.9344 954.08 82.8801C954.016 81.7449 953.826 80.6467 953.513 79.5854C953.261 78.5056 952.96 77.3726 952.609 76.1864ZM964.902 70.921C963.203 65.1774 961.647 59.4593 960.235 53.7667C958.804 48.0117 957.39 42.0821 955.992 35.978C956.031 35.4232 956.157 35.0464 956.37 34.8476C956.564 34.5865 956.88 34.3913 957.317 34.262C957.941 34.0773 958.434 34.1354 958.794 34.4361C959.136 34.6744 959.403 35.0028 959.595 35.4213C959.849 35.8214 960.028 36.3116 960.132 36.892C960.28 37.3914 960.409 37.8284 960.52 38.203L968.996 66.8585C969.328 67.9823 969.773 69.1408 970.329 70.334L971.999 73.9136C972.618 75.0883 973.125 76.2283 973.52 77.3336C973.959 78.358 974.164 79.2817 974.136 80.1047C974.214 80.8284 974.015 81.5323 973.538 82.2164C973.124 82.882 972.574 83.3164 971.887 83.5196C970.763 83.8519 969.817 83.5209 969.047 82.5264C968.278 81.5319 967.609 80.304 967.041 78.8426C966.535 77.3627 966.092 75.8644 965.712 74.3476C965.393 72.8124 965.123 71.6701 964.902 70.921ZM983.682 112.721L983.238 111.223C983.146 110.911 983.085 110.589 983.055 110.259C983.007 109.866 983.039 109.516 983.153 109.211C983.266 108.906 983.51 108.698 983.885 108.587C985.133 108.218 985.944 108.318 986.315 108.887C986.731 109.375 987.059 110.025 987.299 110.836C987.558 111.71 987.645 112.465 987.562 113.101C987.541 113.718 986.906 114.211 985.657 114.581C985.283 114.692 984.965 114.65 984.704 114.455C984.443 114.261 984.235 114.017 984.08 113.723C983.907 113.367 983.774 113.033 983.682 112.721Z" fill="black"/>
<path d="M517.126 308.165C517.398 308.25 517.67 308.336 517.942 308.422C519.698 308.975 521.466 309.532 523.298 310.04C535.975 313.659 548.109 318.475 558.962 326.117C572.154 335.406 582.65 346.98 588.955 362.042C589.365 362.706 589.824 363.337 590.329 363.932L592.287 357.317C592.923 355.292 593.913 353.56 596.454 353.964C598.491 354.271 599.826 356.409 599.191 359.12C597.38 366.732 595.509 374.328 593.297 381.825C592.167 385.609 589.406 386.238 586.003 383.912C580.084 379.889 574.214 375.79 568.352 371.696C567.813 371.319 567.273 370.942 566.734 370.566C564.168 368.781 563.42 366.512 564.673 364.599C565.926 362.686 568.08 362.285 570.984 363.845C572.999 364.928 575.077 366.216 577.151 367.501C578.065 368.068 578.978 368.634 579.886 369.182C580.667 369.654 581.466 370.119 582.66 370.814C583.036 371.033 583.45 371.274 583.915 371.545C583.356 367.566 582.031 363.732 580.015 360.256C570.26 343.386 555.057 330.335 536.904 323.248C531.507 321.045 525.847 319.381 520.182 317.715C518.304 317.163 516.426 316.611 514.557 316.039C511.146 315.204 507.902 313.798 504.961 311.88C503.225 309.434 503.54 309.056 505.068 307.221L505.13 307.146C507.112 304.759 512.636 306.64 516.055 307.804C516.442 307.936 516.801 308.059 517.126 308.165Z" fill="#FACC15"/>
<path d="M517.126 308.165C517.398 308.25 517.67 308.336 517.942 308.422C519.698 308.975 521.466 309.532 523.298 310.04C535.975 313.659 548.109 318.475 558.962 326.117C572.154 335.406 582.65 346.98 588.955 362.042C589.365 362.706 589.824 363.337 590.329 363.932L592.287 357.317C592.923 355.292 593.913 353.56 596.454 353.964C598.491 354.271 599.826 356.409 599.191 359.12C597.38 366.732 595.509 374.328 593.297 381.825C592.167 385.609 589.406 386.238 586.003 383.912C580.084 379.889 574.214 375.79 568.352 371.696C567.813 371.319 567.273 370.942 566.734 370.566C564.168 368.781 563.42 366.512 564.673 364.599C565.926 362.686 568.08 362.285 570.984 363.845C572.999 364.928 575.077 366.216 577.151 367.501C578.065 368.068 578.978 368.634 579.886 369.182C580.667 369.654 581.466 370.119 582.66 370.814C583.036 371.033 583.45 371.274 583.915 371.545C583.356 367.566 582.031 363.732 580.015 360.256C570.26 343.386 555.057 330.335 536.904 323.248C531.507 321.045 525.847 319.381 520.182 317.715C518.304 317.163 516.426 316.611 514.557 316.039C511.146 315.204 507.902 313.798 504.961 311.88C503.225 309.434 503.54 309.056 505.068 307.221L505.13 307.146C507.112 304.759 512.636 306.64 516.055 307.804C516.442 307.936 516.801 308.059 517.126 308.165Z" stroke="#F5F5F5"/>
</svg>
