<svg width="678" height="348" viewBox="0 0 678 348" fill="none" xmlns="http://www.w3.org/2000/svg">
<path d="M30.7816 286.51C30.7262 286.323 30.8084 286.027 31.0282 285.623C31.2481 285.218 31.4516 284.988 31.6389 284.933C32.986 286.503 34.4545 288.139 36.0443 289.842C37.6341 291.544 39.3338 293.044 41.1434 294.342C43.0155 295.621 44.9825 296.533 47.0445 297.077C49.1249 297.684 51.2889 297.655 53.5364 296.99C55.5342 296.399 57.1253 295.352 58.3097 293.847C59.4941 292.343 60.0625 290.477 60.015 288.251C58.8753 283.021 57.3391 277.942 55.4063 273.014C53.4735 268.087 51.4251 263.227 49.2611 258.436C47.0786 253.582 44.9053 248.76 42.7413 243.968C40.5588 239.115 38.6792 234.137 37.1025 229.037C37.0102 228.724 36.8682 228.359 36.6765 227.941C36.5287 227.441 36.4527 226.954 36.4483 226.48C36.4439 226.006 36.5204 225.577 36.6777 225.19C36.8351 224.804 37.226 224.519 37.8503 224.334C38.537 224.131 39.2594 224.393 40.0173 225.119C44.2742 233.772 48.4211 242.628 52.4581 251.685C56.4952 260.743 59.8802 269.892 62.6132 279.131C63.3519 281.629 63.8478 283.994 64.1011 286.227C64.4168 288.442 64.2968 290.447 63.7411 292.241C63.2039 294.097 62.1905 295.72 60.701 297.112C59.2299 298.565 57.1209 299.698 54.374 300.511C52.0016 301.212 49.5567 301.324 47.0393 300.847C44.6027 300.414 42.2646 299.51 40.025 298.135C37.8663 296.805 35.9459 295.133 34.2638 293.118C32.644 291.085 31.4833 288.883 30.7816 286.51ZM67.6014 276.027C66.315 273.284 65.2747 270.571 64.4807 267.886C63.6682 265.139 63.0025 262.315 62.4836 259.413C62.0272 256.493 61.668 253.442 61.4059 250.261C61.1878 246.999 60.9987 243.49 60.8386 239.736C60.6355 239.049 60.6381 238.369 60.8465 237.696C61.0364 236.961 61.3881 236.314 61.9016 235.755C62.3967 235.133 62.9506 234.596 63.5635 234.143C64.1764 233.69 64.7949 233.372 65.4193 233.187C66.7927 232.781 68.1706 232.848 69.5529 233.39C70.9351 233.932 72.248 234.697 73.4913 235.688C74.7971 236.659 75.9745 237.771 77.0235 239.022C78.1165 240.192 79.0292 241.212 79.7617 242.082C80.9075 244.119 81.9895 246.515 83.0078 249.269C84.07 251.942 84.9322 254.742 85.5944 257.669C86.2565 260.596 86.6597 263.566 86.804 266.579C86.9298 269.529 86.71 272.343 86.1446 275.023C85.5793 277.702 84.5286 280.117 82.9924 282.269C81.5188 284.402 79.4951 286.053 76.9214 287.222C75.4855 287.646 74.2544 287.501 73.2283 286.787C72.1836 286.009 71.2709 284.989 70.4901 283.727C69.7532 282.383 69.1412 281.003 68.654 279.585C68.2293 278.149 67.8784 276.963 67.6014 276.027ZM72.2943 274.333C72.4789 274.957 72.6544 275.55 72.8206 276.112C73.0492 276.656 73.2778 277.199 73.5064 277.742C73.779 278.205 74.0701 278.73 74.3796 279.317C74.7331 279.824 75.1455 280.415 75.6168 281.09L76.1787 280.924C77.677 280.481 78.8091 279.603 79.575 278.29C80.3408 276.977 80.8675 275.429 81.155 273.647C81.424 271.802 81.5221 269.838 81.449 267.755C81.3576 265.61 81.1597 263.564 80.8554 261.617C80.5951 259.589 80.2561 257.754 79.8384 256.113C79.4647 254.39 79.1301 253.03 78.8346 252.031L78.2807 250.158C78.0406 249.346 77.7416 248.45 77.3837 247.47C77.0074 246.427 76.5686 245.402 76.0674 244.397C75.6101 243.31 75.0961 242.375 74.5255 241.594C73.9363 240.75 73.3089 240.121 72.6433 239.706C71.9776 239.292 71.239 239.205 70.4274 239.445C68.9247 239.415 67.7662 239.859 66.952 240.779C66.2002 241.68 65.7337 242.972 65.5526 244.655C65.4155 246.257 65.5048 248.166 65.8205 250.381C66.1362 252.596 66.6414 254.992 67.3361 257.57C68.0307 260.149 68.8028 262.873 69.6523 265.745C70.5642 268.599 71.4448 271.461 72.2943 274.333ZM114.347 315.97C119.749 314.033 123.632 311.323 125.996 307.84C128.423 304.339 129.817 300.328 130.177 295.809C130.537 291.289 130.098 286.361 128.859 281.025C127.639 275.75 126.082 270.372 124.188 264.89C122.295 259.407 120.277 253.962 118.134 248.553C116.035 243.064 114.306 237.906 112.947 233.081C112.589 241.741 111.944 248.857 111.012 254.428C110.061 259.937 108.926 264.245 107.604 267.351C106.326 270.377 104.928 272.42 103.408 273.48C101.933 274.46 100.469 274.791 99.0177 274.474C97.5474 274.094 96.1757 273.244 94.9025 271.923C93.6732 270.521 92.6532 269.024 91.8424 267.431C91.1178 264.522 90.7472 261.203 90.7304 257.474C90.7576 253.664 91.0934 249.864 91.7379 246.075C92.4263 242.206 93.4384 238.512 94.774 234.993C96.0911 231.413 97.727 228.451 99.6817 226.108C101.618 223.702 103.888 222.08 106.491 221.242C109.077 220.341 111.9 220.592 114.963 221.995C115.044 222.039 115.387 222.854 115.992 224.44C116.641 225.946 117.447 227.982 118.41 230.548C119.416 233.034 120.525 235.863 121.735 239.036C122.989 242.127 124.23 245.291 125.458 248.525C126.668 251.698 127.81 254.755 128.884 257.696C129.958 260.637 130.911 263.173 131.745 265.303C133.047 268.787 134.008 272.61 134.628 276.772C135.311 280.915 135.644 285.026 135.628 289.104C135.631 293.245 135.248 297.228 134.478 301.054C133.771 304.862 132.608 308.159 130.988 310.946C129.431 313.715 127.362 315.787 124.781 317.161C122.282 318.58 119.271 318.961 115.751 318.305C115.563 318.36 115.273 318.412 114.88 318.461C114.505 318.571 114.166 318.57 113.861 318.457C113.618 318.325 113.513 318.084 113.545 317.735C113.578 317.386 113.845 316.798 114.347 315.97ZM96.5181 265.335C97.7149 267.085 98.8219 267.844 99.8393 267.611C100.901 267.297 101.83 266.309 102.629 264.647C103.409 262.923 104.125 260.64 104.779 257.799C105.494 254.94 106.114 251.871 106.638 248.593C107.162 245.315 107.637 241.984 108.061 238.599C108.53 235.134 108.969 231.915 109.38 228.942C109.177 228.255 108.836 227.677 108.358 227.207C107.861 226.675 107.119 226.691 106.131 227.255C104.494 228.147 103.027 229.497 101.729 231.307C100.493 233.098 99.444 235.174 98.5805 237.534C97.761 239.813 97.0998 242.283 96.5969 244.944C96.138 247.523 95.8131 250.098 95.6223 252.666C95.4755 255.154 95.4571 257.501 95.567 259.709C95.7394 261.899 96.0564 263.774 96.5181 265.335ZM164.883 258.556C164.091 257.025 163.238 255.172 162.323 252.999C161.453 250.744 160.551 248.499 159.618 246.263C158.667 243.964 157.699 241.841 156.715 239.891C155.793 237.923 154.795 236.385 153.721 235.277C152.457 242.712 151.162 248.662 149.835 253.128C148.49 257.532 147.121 260.822 145.728 262.999C144.38 265.096 143.072 266.297 141.804 266.604C140.537 266.911 139.341 266.654 138.216 265.833C137.09 265.011 136.1 263.845 135.245 262.332C134.435 260.739 133.754 259.243 133.205 257.844C132.798 256.47 132.538 254.443 132.424 251.761C132.309 249.079 132.349 246.114 132.542 242.866C132.717 239.555 133.07 236.158 133.601 232.674C134.195 229.172 134.965 225.923 135.912 222.927C136.859 219.931 137.998 217.354 139.328 215.195C140.658 213.037 142.229 211.689 144.039 211.154C146.595 209.923 148.737 209.934 150.465 211.188C152.238 212.361 153.272 214.94 153.569 218.926C154.788 223.047 155.987 226.528 157.167 229.37C158.41 232.193 159.615 234.892 160.784 237.465C162.015 240.021 163.22 242.719 164.401 245.561C165.643 248.385 166.874 251.857 168.092 255.977C168.314 256.726 168.414 257.409 168.393 258.027C168.416 258.563 167.741 259.034 166.367 259.441C166.18 259.496 165.884 259.414 165.48 259.194C165.138 258.956 164.939 258.743 164.883 258.556ZM147.445 218.192C146.463 217.396 145.499 217.579 144.552 218.742C143.606 219.904 142.755 221.616 141.998 223.877C141.241 226.137 140.563 228.782 139.965 231.81C139.367 234.838 138.872 237.87 138.48 240.906C138.088 243.941 137.815 246.805 137.661 249.499C137.489 252.13 137.478 254.272 137.627 255.925C138.292 258.172 139.014 259.35 139.793 259.459C140.554 259.506 141.286 258.882 141.989 257.588C142.692 256.293 143.391 254.525 144.086 252.283C144.843 250.022 145.501 247.655 146.059 245.182C146.68 242.69 147.225 240.288 147.696 237.976C148.229 235.646 148.623 233.764 148.878 232.331C149.052 230.854 149.129 229.507 149.108 228.291C149.088 227.075 149.024 225.94 148.916 224.885C148.851 223.75 148.662 222.652 148.348 221.591C148.097 220.511 147.796 219.378 147.445 218.192ZM213.408 232.898C212.121 230.156 211.081 227.442 210.287 224.758C209.474 222.011 208.809 219.187 208.29 216.285C207.833 213.365 207.474 210.314 207.212 207.133C206.994 203.871 206.805 200.362 206.645 196.607C206.442 195.921 206.444 195.241 206.653 194.568C206.842 193.833 207.194 193.186 207.708 192.627C208.203 192.005 208.757 191.468 209.37 191.015C209.982 190.562 210.601 190.243 211.225 190.059C212.599 189.653 213.977 189.72 215.359 190.262C216.741 190.803 218.054 191.569 219.297 192.559C220.603 193.531 221.781 194.642 222.83 195.894C223.923 197.064 224.835 198.084 225.568 198.954C226.714 200.991 227.796 203.387 228.814 206.141C229.876 208.814 230.738 211.614 231.4 214.541C232.063 217.468 232.466 220.438 232.61 223.451C232.736 226.401 232.516 229.215 231.951 231.894C231.385 234.574 230.335 236.989 228.799 239.141C227.325 241.274 225.301 242.925 222.727 244.094C221.292 244.518 220.06 244.373 219.034 243.658C217.99 242.881 217.077 241.861 216.296 240.599C215.559 239.255 214.947 237.874 214.46 236.457C214.035 235.021 213.684 233.835 213.408 232.898ZM218.1 231.205C218.285 231.829 218.46 232.422 218.627 232.984C218.855 233.528 219.084 234.071 219.312 234.614C219.585 235.077 219.876 235.602 220.186 236.189C220.539 236.696 220.952 237.287 221.423 237.962L221.985 237.796C223.483 237.352 224.615 236.474 225.381 235.162C226.147 233.849 226.674 232.301 226.961 230.519C227.23 228.674 227.328 226.71 227.255 224.627C227.164 222.482 226.966 220.435 226.661 218.489C226.401 216.461 226.062 214.626 225.644 212.985C225.271 211.262 224.936 209.901 224.641 208.903L224.087 207.03C223.847 206.218 223.548 205.322 223.19 204.342C222.813 203.299 222.375 202.274 221.873 201.268C221.416 200.182 220.902 199.247 220.332 198.466C219.742 197.622 219.115 196.992 218.449 196.578C217.784 196.164 217.045 196.077 216.233 196.317C214.731 196.286 213.572 196.731 212.758 197.651C212.006 198.552 211.54 199.844 211.359 201.527C211.222 203.129 211.311 205.038 211.627 207.253C211.942 209.468 212.447 211.864 213.142 214.442C213.837 217.02 214.609 219.745 215.458 222.617C216.37 225.471 217.251 228.333 218.1 231.205ZM279.661 203.83C279.183 201.527 278.651 199.037 278.062 196.36C277.455 193.62 276.952 190.883 276.551 188.151C276.212 185.399 276.004 182.745 275.927 180.188C275.912 177.613 276.167 175.263 276.693 173.138C277.263 170.933 278.202 169.06 279.511 167.518C280.802 165.914 282.612 164.802 284.94 164.181C286.501 163.719 287.881 164.024 289.08 165.095C290.342 166.148 291.406 167.564 292.272 169.345C293.201 171.107 293.961 172.987 294.551 174.985C295.186 176.901 295.688 178.484 296.058 179.733C294.809 180.102 293.622 179.876 292.497 179.055C291.353 178.171 290.35 177.076 289.488 175.769C288.626 174.463 287.899 173.15 287.305 171.832L286.221 169.2C286.158 169.218 286.034 169.255 285.846 169.31C285.703 169.285 285.6 169.281 285.538 169.3C284.476 169.614 283.653 170.502 283.067 171.966C282.544 173.41 282.154 175.189 281.896 177.302C281.682 179.334 281.636 181.588 281.758 184.064C281.861 186.478 282.048 188.833 282.32 191.129C282.591 193.425 282.879 195.546 283.184 197.493C283.532 199.359 283.854 200.791 284.149 201.79C284.505 203.45 285.031 205.229 285.728 207.128C286.425 209.026 287.336 210.726 288.458 212.227C289.581 213.728 290.889 214.936 292.382 215.852C293.857 216.706 295.595 217.075 297.598 216.958C299.908 216.274 301.688 215.408 302.939 214.359C304.191 213.31 305.096 212.126 305.656 210.806C306.279 209.468 306.646 208.069 306.758 206.61C306.869 205.152 306.94 203.671 306.971 202.168C307.046 200.584 307.13 199.032 307.223 197.511C307.316 195.99 307.656 194.497 308.241 193.034C308.935 192.625 309.475 192.5 309.861 192.657C310.291 192.733 310.624 192.941 310.859 193.278C311.095 193.616 311.287 194.034 311.434 194.534L311.739 195.564C312.515 198.186 312.826 200.844 312.672 203.537C312.518 206.23 311.884 208.794 310.771 211.228C309.64 213.599 308.063 215.729 306.042 217.617C304.064 219.424 301.577 220.771 298.58 221.657C296.083 222.396 293.761 222.234 291.614 221.172C289.51 220.029 287.658 218.472 286.057 216.501C284.518 214.512 283.201 212.356 282.106 210.032C280.993 207.646 280.178 205.578 279.661 203.83ZM344.063 196.39C344.035 197.213 343.715 198.428 343.104 200.035C342.537 201.56 341.792 203.173 340.868 204.871C339.927 206.508 338.886 208.038 337.745 209.461C336.649 210.804 335.57 211.632 334.509 211.946C332.511 212.537 330.579 212.09 328.714 210.605C326.912 209.101 325.233 206.984 323.678 204.253C322.124 201.522 320.695 198.414 319.393 194.929C318.072 191.382 316.873 187.901 315.795 184.486C314.717 181.071 313.762 177.958 312.931 175.149C312.1 172.34 311.379 170.245 310.767 168.864C310.832 168.166 311.033 167.699 311.371 167.464C311.771 167.209 312.252 166.999 312.814 166.833C313.313 166.685 313.769 166.619 314.18 166.633C314.654 166.628 315.139 166.892 315.636 167.424C315.839 168.111 316.181 169.266 316.661 170.889C317.204 172.494 317.842 174.308 318.576 176.331C319.292 178.292 320.045 180.377 320.834 182.588C321.606 184.736 322.318 186.8 322.971 188.779C323.687 190.74 324.316 192.523 324.859 194.127C325.445 195.651 325.881 196.778 326.165 197.509C326.356 197.928 326.631 198.627 326.989 199.608C327.409 200.57 327.879 201.585 328.399 202.653C328.963 203.641 329.53 204.525 330.1 205.307C330.734 206.07 331.34 206.4 331.921 206.296C332.857 206.019 333.674 205.336 334.37 204.248C335.129 203.141 335.792 201.824 336.359 200.299C336.926 198.773 337.394 197.141 337.762 195.403C338.131 193.664 338.424 192.016 338.642 190.458C338.904 188.819 339.025 187.391 339.004 186.175C339.047 184.941 339.025 184.064 338.94 183.547C338.751 182.448 338.432 180.913 337.985 178.941C337.519 176.906 336.985 174.756 336.382 172.49C335.78 170.224 335.183 168.092 334.592 166.094C334.064 164.078 333.643 162.539 333.329 161.478L338.562 160.235C340.12 165.274 341.446 169.872 342.54 174.029C343.616 178.124 344.72 181.972 345.854 185.575C346.969 189.115 348.275 192.497 349.771 195.72C351.268 198.944 353.207 202.172 355.589 205.405C355.457 205.648 355.157 206.009 354.687 206.487C354.236 207.028 353.886 207.335 353.636 207.409C352.075 207.871 350.857 207.654 349.981 206.759C349.186 205.908 348.492 204.823 347.898 203.505C347.349 202.106 346.808 200.738 346.277 199.402C345.79 197.984 345.052 196.98 344.063 196.39ZM347.316 158.155L347.095 157.406C346.91 156.782 346.999 156.28 347.362 155.901C347.788 155.504 348.313 155.213 348.937 155.028C349.436 154.88 349.923 154.804 350.397 154.8C350.853 154.733 351.298 154.975 351.732 155.525C352.196 156.406 352.771 157.662 353.457 159.292C354.125 160.86 354.879 162.606 355.719 164.53C356.56 166.453 357.437 168.502 358.352 170.676C359.31 172.769 360.21 174.777 361.051 176.701C361.935 178.544 362.764 180.2 363.538 181.668C364.312 183.136 365.006 184.221 365.621 184.922C363.661 178.984 362.316 173.747 361.585 169.21C360.836 164.612 360.835 160.708 361.583 157.499C362.375 154.21 363.988 151.628 366.421 149.754C368.898 147.8 372.32 146.516 376.688 145.903C378.623 145.33 379.895 146.074 380.505 148.135C380.745 148.946 380.38 149.665 379.411 150.291C378.424 150.855 377.293 151.393 376.019 151.906C374.727 152.356 373.474 152.828 372.263 153.322C371.051 153.816 370.238 154.396 369.824 155.062C367.946 156.975 366.926 159.382 366.765 162.281C366.667 165.161 366.957 168.436 367.635 172.105C368.313 175.775 369.186 179.76 370.254 184.06C371.367 188.28 372.235 192.708 372.86 197.344C373.044 197.968 372.933 198.51 372.526 198.97C372.119 199.43 371.541 199.771 370.792 199.992C370.105 200.195 369.372 200.242 368.593 200.133C367.876 200.006 367.238 199.685 366.679 199.172L347.316 158.155ZM385.336 146.909L385.115 146.16C384.93 145.536 385.019 145.034 385.382 144.655C385.808 144.258 386.333 143.967 386.957 143.782C387.457 143.634 387.943 143.558 388.417 143.554C388.873 143.487 389.318 143.729 389.752 144.279C390.216 145.16 390.791 146.416 391.477 148.046C392.145 149.614 392.899 151.36 393.739 153.284C394.58 155.207 395.458 157.256 396.372 159.43C397.331 161.523 398.23 163.531 399.071 165.455C399.955 167.298 400.785 168.954 401.558 170.422C402.332 171.89 403.026 172.975 403.641 173.676C401.681 167.738 400.336 162.501 399.605 157.964C398.856 153.366 398.855 149.462 399.603 146.253C400.396 142.964 402.008 140.382 404.441 138.508C406.918 136.554 410.34 135.27 414.708 134.657C416.643 134.084 417.916 134.828 418.525 136.889C418.765 137.7 418.401 138.419 417.432 139.045C416.444 139.609 415.313 140.147 414.039 140.66C412.747 141.11 411.495 141.582 410.283 142.076C409.071 142.57 408.258 143.15 407.844 143.816C405.966 145.729 404.946 148.136 404.786 151.035C404.687 153.915 404.977 157.19 405.655 160.859C406.333 164.529 407.206 168.514 408.275 172.814C409.387 177.034 410.255 181.462 410.88 186.098C411.064 186.722 410.953 187.264 410.546 187.724C410.139 188.184 409.561 188.525 408.812 188.746C408.125 188.949 407.392 188.996 406.613 188.887C405.896 188.76 405.258 188.439 404.699 187.926L385.336 146.909ZM437.652 178.484C436.451 174.426 435.093 170.177 433.576 165.738C432.122 161.28 430.627 156.8 429.091 152.298C427.6 147.715 426.23 143.198 424.981 138.747C423.733 134.296 422.786 130.061 422.14 126.043C422.246 125.943 422.518 125.829 422.955 125.7C423.436 125.49 423.77 125.357 423.958 125.301C424.832 125.043 425.564 124.996 426.156 125.16C426.792 125.244 427.248 125.754 427.525 126.69C428.615 130.374 429.775 134.41 431.005 138.798C432.279 143.106 433.55 147.516 434.817 152.03C436.128 156.462 437.43 160.864 438.723 165.234C440.015 169.604 441.25 173.55 442.428 177.072C442.804 178.114 442.789 178.866 442.382 179.326C442.055 179.829 441.549 180.183 440.862 180.386C440.113 180.608 439.433 180.605 438.823 180.378C438.231 180.214 437.841 179.582 437.652 178.484ZM419.705 112.302C417.927 112.488 416.806 112.141 416.342 111.26C415.921 110.298 415.942 109.104 416.402 107.678C416.863 106.251 417.608 104.639 418.638 102.841C419.649 100.98 420.679 99.1822 421.727 97.4464C422.788 97.1325 423.589 97.2011 424.13 97.6522C424.671 98.1032 425.052 98.7034 425.273 99.4525L425.467 100.108C425.546 100.832 425.402 101.723 425.036 102.782C424.67 103.84 424.18 104.936 423.564 106.068C422.949 107.201 422.262 108.321 421.503 109.428C420.806 110.516 420.207 111.474 419.705 112.302ZM443.072 155.495C442.595 153.192 442.062 150.702 441.474 148.024C440.867 145.284 440.363 142.548 439.962 139.815C439.623 137.064 439.415 134.409 439.338 131.852C439.323 129.277 439.578 126.927 440.104 124.803C440.674 122.597 441.613 120.724 442.923 119.183C444.214 117.579 446.023 116.466 448.352 115.845C449.912 115.384 451.292 115.688 452.492 116.759C453.754 117.812 454.818 119.229 455.684 121.009C456.612 122.771 457.372 124.651 457.963 126.649C458.598 128.566 459.1 130.149 459.469 131.397C458.221 131.766 457.034 131.54 455.908 130.719C454.764 129.836 453.761 128.74 452.899 127.434C452.038 126.127 451.31 124.815 450.717 123.497L449.632 120.864C449.57 120.883 449.445 120.919 449.258 120.975C449.114 120.949 449.012 120.946 448.949 120.964C447.888 121.278 447.064 122.167 446.479 123.63C445.956 125.075 445.565 126.854 445.308 128.967C445.094 130.999 445.048 133.253 445.169 135.729C445.272 138.142 445.459 140.497 445.731 142.793C446.003 145.089 446.291 147.21 446.595 149.157C446.943 151.023 447.265 152.455 447.561 153.454C447.916 155.114 448.442 156.894 449.14 158.792C449.837 160.69 450.747 162.39 451.87 163.891C452.993 165.392 454.301 166.601 455.794 167.517C457.268 168.371 459.007 168.739 461.009 168.622C463.319 167.939 465.1 167.073 466.351 166.024C467.602 164.975 468.508 163.79 469.068 162.47C469.69 161.132 470.057 159.733 470.169 158.275C470.281 156.816 470.352 155.335 470.383 153.832C470.457 152.249 470.541 150.696 470.634 149.175C470.728 147.654 471.067 146.162 471.653 144.699C472.346 144.29 472.886 144.164 473.272 144.321C473.702 144.398 474.035 144.605 474.271 144.943C474.506 145.28 474.698 145.699 474.846 146.198L475.151 147.228C475.926 149.85 476.237 152.508 476.083 155.201C475.929 157.895 475.296 160.458 474.183 162.892C473.051 165.264 471.474 167.393 469.453 169.281C467.475 171.088 464.988 172.435 461.992 173.321C459.494 174.06 457.172 173.898 455.025 172.836C452.922 171.693 451.069 170.136 449.468 168.166C447.929 166.177 446.613 164.02 445.518 161.696C444.405 159.31 443.589 157.243 443.072 155.495ZM507.474 148.055C507.446 148.878 507.126 150.093 506.515 151.699C505.948 153.225 505.203 154.837 504.28 156.536C503.338 158.172 502.297 159.702 501.157 161.126C500.06 162.469 498.981 163.297 497.92 163.611C495.922 164.202 493.991 163.755 492.126 162.269C490.323 160.766 488.645 158.649 487.09 155.917C485.535 153.186 484.107 150.078 482.804 146.594C481.484 143.047 480.284 139.566 479.206 136.15C478.128 132.735 477.174 129.623 476.343 126.814C475.512 124.004 474.79 121.909 474.178 120.529C474.243 119.831 474.444 119.364 474.782 119.128C475.182 118.874 475.663 118.664 476.225 118.497C476.724 118.35 477.18 118.283 477.591 118.297C478.065 118.293 478.551 118.556 479.048 119.088C479.251 119.775 479.592 120.93 480.073 122.553C480.615 124.158 481.253 125.972 481.988 127.995C482.704 129.956 483.456 132.042 484.246 134.252C485.017 136.4 485.729 138.464 486.383 140.443C487.098 142.404 487.728 144.187 488.27 145.792C488.857 147.316 489.292 148.443 489.576 149.174C489.768 149.592 490.042 150.292 490.4 151.272C490.821 152.234 491.291 153.249 491.81 154.317C492.374 155.305 492.941 156.19 493.512 156.971C494.145 157.734 494.752 158.064 495.332 157.96C496.269 157.683 497.085 157.001 497.781 155.912C498.54 154.805 499.203 153.489 499.77 151.963C500.337 150.437 500.805 148.805 501.174 147.067C501.542 145.329 501.835 143.68 502.053 142.122C502.315 140.483 502.436 139.056 502.416 137.84C502.458 136.605 502.436 135.729 502.351 135.211C502.162 134.113 501.844 132.577 501.396 130.605C500.93 128.57 500.396 126.42 499.794 124.154C499.191 121.888 498.595 119.756 498.004 117.759C497.475 115.742 497.054 114.204 496.74 113.142L501.974 111.9C503.532 116.938 504.858 121.536 505.952 125.693C507.027 129.788 508.132 133.637 509.265 137.239C510.38 140.779 511.686 144.161 513.183 147.385C514.679 150.608 516.619 153.837 519.001 157.07C518.869 157.312 518.568 157.673 518.099 158.151C517.647 158.692 517.297 158.999 517.047 159.073C515.487 159.535 514.268 159.318 513.393 158.423C512.598 157.572 511.903 156.487 511.31 155.169C510.76 153.77 510.22 152.403 509.689 151.066C509.202 149.649 508.463 148.645 507.474 148.055ZM524.633 149.599C524.22 146.598 523.439 142.925 522.29 138.581C521.203 134.217 519.908 129.61 518.405 124.759C516.965 119.89 515.385 114.892 513.665 109.765C511.945 104.639 510.246 99.8122 508.567 95.2847C506.87 90.6947 505.258 86.6227 503.731 83.0686C502.267 79.496 501.003 76.713 499.938 74.7196C500.389 74.1789 500.774 73.7594 501.093 73.4613C501.456 73.0824 501.919 72.8098 502.481 72.6436C502.918 72.5143 503.32 72.4972 503.688 72.5921C504.037 72.6246 504.379 72.8629 504.714 73.307C509.582 85.174 514.072 97.2547 518.184 109.549C522.358 121.825 526.389 134.075 530.276 146.3C530.443 146.862 530.673 147.643 530.969 148.641C531.246 149.578 531.362 150.087 531.318 150.167C530.574 150.863 529.858 151.312 529.171 151.515C528.466 151.656 527.786 151.654 527.132 151.508C526.459 151.299 525.902 151.023 525.461 150.678C525.019 150.333 524.743 149.974 524.633 149.599ZM533.394 138.249C532.108 135.507 531.067 132.793 530.273 130.109C529.461 127.362 528.795 124.538 528.276 121.636C527.82 118.716 527.461 115.665 527.199 112.484C526.981 109.221 526.791 105.713 526.631 101.958C526.428 101.272 526.431 100.592 526.639 99.9192C526.829 99.1841 527.181 98.537 527.694 97.9777C528.189 97.356 528.743 96.8188 529.356 96.3659C529.969 95.9131 530.588 95.5943 531.212 95.4097C532.585 95.0034 533.963 95.0711 535.346 95.6127C536.728 96.1543 538.041 96.9202 539.284 97.9103C540.59 98.8819 541.767 99.9933 542.816 101.245C543.909 102.415 544.822 103.435 545.554 104.304C546.7 106.342 547.782 108.737 548.801 111.491C549.863 114.164 550.725 116.965 551.387 119.892C552.049 122.819 552.453 125.789 552.597 128.801C552.723 131.751 552.503 134.566 551.937 137.245C551.372 139.925 550.321 142.34 548.785 144.492C547.312 146.625 545.288 148.276 542.714 149.444C541.278 149.869 540.047 149.724 539.021 149.009C537.976 148.232 537.064 147.212 536.283 145.949C535.546 144.606 534.934 143.225 534.447 141.808C534.022 140.372 533.671 139.186 533.394 138.249ZM538.087 136.556C538.272 137.18 538.447 137.773 538.613 138.335C538.842 138.878 539.071 139.422 539.299 139.965C539.572 140.428 539.863 140.953 540.172 141.54C540.526 142.047 540.938 142.637 541.41 143.313L541.971 143.146C543.47 142.703 544.602 141.825 545.368 140.512C546.134 139.2 546.66 137.652 546.948 135.87C547.217 134.025 547.315 132.061 547.242 129.978C547.15 127.832 546.952 125.786 546.648 123.84C546.388 121.812 546.049 119.977 545.631 118.336C545.257 116.613 544.923 115.252 544.627 114.253L544.073 112.38C543.833 111.569 543.534 110.673 543.176 109.692C542.8 108.65 542.361 107.625 541.86 106.619C541.403 105.532 540.889 104.598 540.318 103.817C539.729 102.972 539.102 102.343 538.436 101.929C537.77 101.515 537.032 101.428 536.22 101.668C534.717 101.637 533.559 102.082 532.745 103.002C531.993 103.903 531.527 105.195 531.345 106.878C531.208 108.48 531.298 110.389 531.613 112.604C531.929 114.819 532.434 117.215 533.129 119.793C533.824 122.371 534.596 125.096 535.445 127.968C536.357 130.821 537.238 133.684 538.087 136.556ZM631.894 120.418C631.101 118.887 630.248 117.035 629.333 114.861C628.463 112.607 627.561 110.362 626.628 108.126C625.677 105.827 624.709 103.703 623.725 101.754C622.804 99.7859 621.805 98.248 620.731 97.1401C619.467 104.575 618.172 110.525 616.846 114.991C615.5 119.395 614.131 122.685 612.738 124.862C611.39 126.958 610.082 128.16 608.815 128.467C607.548 128.774 606.351 128.517 605.226 127.695C604.1 126.874 603.11 125.707 602.255 124.195C601.445 122.602 600.764 121.105 600.215 119.706C599.809 118.333 599.548 116.305 599.434 113.623C599.32 110.942 599.359 107.977 599.553 104.728C599.728 101.418 600.08 98.0206 600.612 94.5368C601.205 91.0345 601.975 87.7855 602.922 84.7897C603.869 81.7939 605.008 79.2166 606.338 77.0579C607.669 74.8992 609.239 73.5521 611.049 73.0165C613.605 71.7855 615.747 71.7969 617.475 73.0507C619.248 74.2237 620.283 76.8031 620.579 80.789C621.798 84.9094 622.997 88.3906 624.177 91.2325C625.42 94.0559 626.625 96.7544 627.794 99.3282C629.025 101.883 630.231 104.582 631.411 107.424C632.653 110.247 633.884 113.719 635.103 117.84C635.324 118.589 635.424 119.272 635.403 119.889C635.426 120.426 634.751 120.897 633.377 121.303C633.19 121.359 632.894 121.276 632.49 121.057C632.148 120.818 631.949 120.605 631.894 120.418ZM614.455 80.0544C613.473 79.2587 612.509 79.442 611.563 80.6045C610.617 81.7669 609.765 83.4785 609.008 85.7392C608.251 87.9999 607.573 90.6444 606.975 93.6728C606.378 96.7011 605.883 99.733 605.49 102.768C605.098 105.804 604.825 108.668 604.672 111.361C604.499 113.992 604.488 116.134 604.637 117.787C605.302 120.035 606.024 121.213 606.803 121.322C607.564 121.369 608.296 120.745 608.999 119.45C609.703 118.156 610.402 116.388 611.096 114.146C611.853 111.885 612.511 109.518 613.069 107.044C613.69 104.552 614.236 102.15 614.706 99.8388C615.239 97.5086 615.633 95.6269 615.888 94.1936C616.062 92.7164 616.139 91.3697 616.118 90.1537C616.098 88.9376 616.034 87.8024 615.926 86.7481C615.862 85.6129 615.673 84.5147 615.359 83.4534C615.107 82.3736 614.806 81.2406 614.455 80.0544ZM642.08 118.016C640.88 113.958 639.521 109.709 638.004 105.27C636.55 100.812 635.055 96.3318 633.519 91.8298C632.028 87.2469 630.658 82.7299 629.409 78.2789C628.161 73.8279 627.214 69.5932 626.568 65.5748C626.675 65.4754 626.946 65.3611 627.383 65.2318C627.864 65.0216 628.198 64.8889 628.386 64.8335C629.26 64.5749 629.993 64.5279 630.584 64.6923C631.22 64.7758 631.676 65.2858 631.953 66.2223C633.043 69.9057 634.203 73.9417 635.433 78.3302C636.707 82.6379 637.978 87.0485 639.245 91.562C640.556 95.9945 641.858 100.396 643.151 104.766C644.443 109.136 645.678 113.082 646.856 116.604C647.232 117.646 647.217 118.398 646.81 118.858C646.483 119.362 645.977 119.715 645.29 119.918C644.541 120.14 643.861 120.137 643.251 119.91C642.659 119.746 642.269 119.114 642.08 118.016ZM624.133 51.8339C622.355 52.0203 621.234 51.673 620.77 50.792C620.35 49.83 620.37 48.6359 620.83 47.2097C621.291 45.7834 622.036 44.1712 623.066 42.373C624.077 40.5124 625.107 38.7142 626.155 36.9785C627.216 36.6645 628.017 36.7331 628.558 37.1842C629.099 37.6353 629.48 38.2354 629.702 38.9845L629.896 39.6401C629.974 40.3637 629.83 41.2549 629.464 42.3136C629.098 43.3723 628.608 44.4679 627.992 45.6005C627.377 46.733 626.69 47.8528 625.931 48.9599C625.234 50.0485 624.635 51.0065 624.133 51.8339ZM639.483 71.0218C637.785 65.2783 636.229 59.5602 634.817 53.8676C633.386 48.1125 631.972 42.183 630.573 36.0789C630.613 35.524 630.739 35.1472 630.952 34.9485C631.146 34.6874 631.462 34.4921 631.899 34.3629C632.523 34.1782 633.016 34.2362 633.376 34.537C633.718 34.7752 633.985 35.1037 634.177 35.5222C634.431 35.9223 634.61 36.4125 634.714 36.9928C634.861 37.4923 634.991 37.9293 635.101 38.3039L643.577 66.9594C643.91 68.0831 644.354 69.2416 644.911 70.4348L646.581 74.0145C647.2 75.1892 647.707 76.3292 648.102 77.4345C648.54 78.4589 648.746 79.3826 648.718 80.2056C648.796 80.9293 648.597 81.6332 648.12 82.3173C647.706 82.9829 647.156 83.4173 646.469 83.6204C645.345 83.9528 644.399 83.6218 643.629 82.6273C642.86 81.6328 642.191 80.4049 641.623 78.9435C641.117 77.4636 640.674 75.9653 640.293 74.4485C639.975 72.9132 639.705 71.771 639.483 71.0218ZM658.263 112.822L657.82 111.324C657.728 111.011 657.667 110.69 657.637 110.359C657.589 109.966 657.621 109.617 657.734 109.312C657.848 109.007 658.092 108.799 658.466 108.688C659.715 108.319 660.525 108.419 660.897 108.988C661.313 109.476 661.641 110.126 661.881 110.937C662.14 111.811 662.227 112.566 662.144 113.202C662.123 113.819 661.488 114.312 660.239 114.682C659.865 114.792 659.547 114.751 659.286 114.556C659.024 114.362 658.817 114.118 658.662 113.824C658.489 113.468 658.356 113.134 658.263 112.822Z" fill="black"/>
<path d="M350.455 251.874C350.727 251.959 350.999 252.045 351.271 252.131C353.027 252.684 354.795 253.241 356.627 253.749C369.304 257.367 381.438 262.184 392.291 269.826C405.483 279.115 415.98 290.689 422.284 305.751C422.694 306.415 423.153 307.046 423.659 307.641L425.616 301.026C426.252 299.001 427.242 297.268 429.783 297.673C431.82 297.98 433.155 300.118 432.521 302.828C430.709 310.44 428.838 318.037 426.626 325.534C425.496 329.318 422.735 329.947 419.332 327.621C413.413 323.598 407.543 319.498 401.681 315.404C401.142 315.028 400.603 314.651 400.064 314.275C397.497 312.49 396.75 310.221 398.002 308.308C399.255 306.395 401.409 305.993 404.313 307.554C406.328 308.637 408.406 309.925 410.48 311.21C411.394 311.777 412.308 312.343 413.215 312.891C413.996 313.363 414.795 313.828 415.989 314.523C416.365 314.742 416.779 314.983 417.244 315.254C416.685 311.275 415.36 307.441 413.345 303.965C403.589 287.095 388.387 274.044 370.233 266.957C364.836 264.754 359.176 263.09 353.511 261.424C351.633 260.872 349.755 260.32 347.886 259.747C344.475 258.913 341.231 257.507 338.29 255.589C336.554 253.142 336.869 252.765 338.397 250.93L338.46 250.854C340.441 248.467 345.965 250.349 349.384 251.513C349.771 251.645 350.131 251.768 350.455 251.874Z" fill="#FACC15"/>
<path d="M350.455 251.874C350.727 251.959 350.999 252.045 351.271 252.131C353.027 252.684 354.795 253.241 356.627 253.749C369.304 257.367 381.438 262.184 392.291 269.826C405.483 279.115 415.98 290.689 422.284 305.751C422.694 306.415 423.153 307.046 423.659 307.641L425.616 301.026C426.252 299.001 427.242 297.268 429.783 297.673C431.82 297.98 433.155 300.118 432.521 302.828C430.709 310.44 428.838 318.037 426.626 325.534C425.496 329.318 422.735 329.947 419.332 327.621C413.413 323.598 407.543 319.498 401.681 315.404C401.142 315.028 400.603 314.651 400.064 314.275C397.497 312.49 396.75 310.221 398.002 308.308C399.255 306.395 401.409 305.993 404.313 307.554C406.328 308.637 408.406 309.925 410.48 311.21C411.394 311.777 412.308 312.343 413.215 312.891C413.996 313.363 414.795 313.828 415.989 314.523C416.365 314.742 416.779 314.983 417.244 315.254C416.685 311.275 415.36 307.441 413.345 303.965C403.589 287.095 388.387 274.044 370.233 266.957C364.836 264.754 359.176 263.09 353.511 261.424C351.633 260.872 349.755 260.32 347.886 259.747C344.475 258.913 341.231 257.507 338.29 255.589C336.554 253.142 336.869 252.765 338.397 250.93L338.46 250.854C340.441 248.467 345.965 250.349 349.384 251.513C349.771 251.645 350.131 251.768 350.455 251.874Z" stroke="#F5F5F5"/>
</svg>
